
<svg version="1.0" xmlns="http://www.w3.org/2000/svg"
 width="2048.000000pt" height="2048.000000pt" viewBox="0 0 2048.000000 2048.000000"
 preserveAspectRatio="xMidYMid meet">

<g transform="translate(0.000000,2048.000000) scale(0.100000,-0.100000)"
fill="#000000" stroke="none">
<path d="M7449 13016 c-7 -14 -9 -35 -6 -48 8 -29 234 -277 348 -380 223 -203
340 -276 868 -539 470 -235 609 -323 678 -431 35 -57 93 -49 93 12 0 75 -155
209 -391 340 -63 35 -136 75 -163 90 l-49 28 44 25 c234 137 538 238 869 288
192 30 569 32 760 6 425 -59 792 -200 1053 -405 31 -25 57 -48 57 -52 0 -4
-48 -17 -107 -29 -129 -27 -318 -88 -399 -129 -64 -32 -164 -104 -203 -146
-21 -22 -23 -29 -13 -51 18 -38 51 -31 128 26 131 97 262 147 539 204 316 66
527 128 725 212 249 106 461 257 648 463 119 131 182 216 182 245 0 30 -33 59
-58 51 -11 -4 -38 -30 -60 -59 -69 -92 -223 -257 -301 -324 -155 -133 -365
-252 -576 -328 -90 -33 -366 -115 -385 -115 -4 0 -10 9 -13 19 -2 10 -45 51
-93 89 -307 244 -726 397 -1217 443 -180 16 -532 7 -707 -20 -169 -26 -340
-68 -495 -121 -146 -50 -394 -171 -441 -215 l-34 -33 -208 103 c-230 114 -387
206 -501 292 -86 65 -406 381 -466 461 -31 41 -45 52 -67 52 -20 0 -32 -7 -39
-24z"/>
<path d="M4723 12854 c-23 -23 -25 -31 -21 -87 11 -130 133 -426 248 -599 185
-280 601 -609 1069 -845 80 -40 140 -73 134 -73 -18 0 -209 68 -328 117 -60
24 -233 103 -382 175 -319 151 -360 162 -412 110 -27 -26 -31 -38 -31 -84 0
-44 9 -72 44 -144 61 -126 148 -239 300 -389 259 -257 537 -406 1036 -556 69
-21 118 -38 110 -38 -8 -1 -85 13 -170 30 -171 34 -224 33 -252 -1 -81 -100
112 -298 522 -536 481 -278 927 -417 1539 -479 138 -13 157 -13 178 0 28 18
31 59 6 79 -10 8 -80 63 -157 122 -391 301 -700 702 -809 1050 -108 344 -61
572 165 797 93 92 105 118 70 150 -10 10 -31 17 -45 17 -36 0 -486 101 -672
151 -454 122 -855 270 -1190 439 -290 146 -498 288 -690 471 -60 58 -123 115
-139 127 -40 31 -90 29 -123 -4z"/>
<path d="M7202 12448 c-25 -25 -13 -62 44 -128 183 -209 299 -304 506 -410
l107 -55 -58 -82 c-111 -156 -190 -337 -233 -536 -17 -81 -22 -136 -22 -267 0
-178 13 -273 60 -423 145 -457 543 -807 1004 -882 123 -19 312 -19 431 1 357
61 681 272 889 578 39 58 34 65 80 -105 17 -64 40 -130 51 -148 32 -53 87 -36
103 34 4 17 29 89 56 160 50 136 65 185 75 247 9 55 21 54 40 -4 70 -216 242
-447 430 -580 351 -250 794 -287 1180 -98 337 164 575 485 642 865 23 134 14
368 -21 498 -27 104 -43 136 -118 242 -26 36 -50 77 -53 90 -3 14 -7 36 -10
50 -3 14 -30 55 -61 90 l-55 66 53 23 c29 13 100 40 158 60 165 58 373 165
466 239 84 67 187 181 231 255 28 48 26 87 -7 97 -33 10 -53 -3 -95 -62 -100
-139 -230 -251 -385 -328 -30 -16 -149 -66 -265 -112 -196 -78 -306 -133 -382
-190 -31 -24 -31 -24 -38 -3 -11 33 -55 80 -77 80 -12 0 -104 -32 -207 -71
-102 -39 -208 -80 -236 -89 -193 -69 -1013 -392 -1034 -408 -21 -16 -54 -98
-185 -471 -93 -265 -162 -447 -166 -439 -11 19 -236 797 -244 840 -8 42 -3 38
-212 190 -77 57 -321 236 -542 398 -459 336 -449 330 -480 330 -57 0 -236
-119 -313 -208 l-42 -50 -71 54 c-39 29 -160 98 -269 153 -108 55 -228 120
-265 145 -98 66 -225 179 -315 281 -81 92 -116 112 -145 83z m1553 -665 l132
-97 -63 -63 c-113 -113 -169 -271 -146 -410 51 -308 383 -445 669 -277 63 37
145 123 185 193 l34 60 86 -64 c47 -34 88 -68 92 -73 3 -6 -5 -41 -19 -78
-158 -420 -658 -616 -1081 -424 -206 93 -364 278 -425 496 -67 239 13 518 203
701 43 42 174 133 191 133 5 0 69 -44 142 -97z m-705 -23 c42 -23 96 -57 119
-76 l41 -36 -20 -32 c-30 -50 -70 -163 -86 -244 -26 -137 -16 -266 32 -412 73
-225 271 -430 505 -523 123 -49 192 -61 349 -61 175 1 256 20 405 93 159 79
298 209 373 349 20 37 33 52 36 42 3 -8 32 -109 66 -224 59 -206 60 -210 41
-230 -10 -12 -30 -41 -44 -66 -14 -25 -56 -82 -92 -127 -181 -226 -448 -386
-740 -444 -40 -8 -131 -14 -210 -14 -203 0 -369 39 -538 127 -553 288 -789
971 -543 1574 53 130 188 344 217 344 6 0 46 -18 89 -40z m4251 -317 c187
-270 244 -615 154 -928 -55 -193 -139 -332 -289 -480 -152 -149 -312 -236
-521 -281 -97 -20 -304 -23 -390 -5 -440 92 -753 399 -855 838 l-21 87 38 108
c20 59 39 105 41 103 2 -2 19 -37 37 -78 108 -250 327 -436 597 -509 109 -30
326 -32 433 -4 160 41 342 154 443 273 148 177 218 426 182 648 -11 67 -54
222 -76 274 -8 18 -14 35 -12 36 2 1 25 19 52 39 l49 37 44 -43 c24 -24 66
-75 94 -115z m-384 75 c96 -145 134 -264 134 -423 1 -197 -68 -363 -206 -500
-44 -44 -106 -95 -138 -114 -77 -45 -204 -87 -306 -101 -150 -20 -330 18 -481
101 -107 60 -242 197 -297 304 -45 87 -79 189 -84 249 l-4 38 133 51 c73 27
135 47 139 43 3 -3 10 -31 14 -61 18 -134 117 -268 245 -332 62 -30 86 -36
162 -41 73 -4 103 -1 158 16 125 38 220 120 278 242 29 61 31 72 31 180 0 105
-2 120 -28 175 -15 32 -39 74 -53 93 -14 18 -24 35 -23 37 6 5 263 104 274
104 6 1 29 -27 52 -61z"/>
<path d="M15843 12380 c-13 -5 -129 -73 -259 -150 -440 -263 -701 -393 -962
-479 -254 -85 -424 -116 -1017 -185 -475 -56 -622 -63 -1005 -43 -41 2 -45 0
-48 -23 -1 -15 12 -47 32 -80 128 -201 175 -385 163 -630 -13 -261 -82 -459
-234 -678 -140 -201 -302 -341 -521 -452 -102 -51 -407 -160 -448 -160 -12 0
-24 -7 -28 -15 -3 -8 -21 -23 -41 -32 -19 -9 -34 -22 -32 -27 8 -28 347 -120
497 -135 446 -46 1064 56 1539 255 168 71 356 178 403 231 29 32 33 78 9 102
-20 20 -30 21 -278 20 -144 -1 -280 3 -308 9 -65 14 -165 51 -165 62 0 4 24
11 53 15 192 24 346 49 433 71 359 87 798 279 1104 482 295 196 391 301 331
361 -12 12 -34 21 -52 21 -17 0 -124 -27 -238 -59 -356 -102 -509 -126 -741
-118 -86 3 -188 13 -230 22 -90 20 -242 76 -247 90 -2 7 53 20 135 33 211 34
351 68 542 132 490 162 898 399 1255 729 238 220 455 494 455 574 0 47 -50 77
-97 57z"/>
<path d="M9875 9872 c-139 -42 -253 -139 -319 -274 -63 -126 -68 -168 -73
-600 -7 -519 14 -719 93 -884 81 -171 277 -264 556 -264 299 0 431 81 518 317
65 180 98 512 86 863 -14 386 -47 512 -171 663 -118 143 -226 186 -480 193
-123 3 -161 1 -210 -14z m356 -96 c79 -17 156 -54 207 -100 84 -77 155 -215
168 -331 l7 -55 -177 0 c-174 0 -177 0 -201 -24 -16 -16 -23 -31 -19 -43 14
-40 31 -43 226 -43 l188 0 0 -86 0 -85 -173 7 c-183 7 -210 3 -220 -36 -3 -11
2 -29 12 -41 15 -19 30 -21 199 -26 l182 -6 0 -93 0 -94 -175 7 c-134 5 -178
3 -190 -7 -18 -15 -20 -66 -2 -77 6 -4 91 -12 187 -18 l175 -10 -3 -50 c-5
-84 -32 -236 -54 -310 -38 -131 -96 -218 -169 -255 -102 -53 -323 -62 -483
-20 -177 45 -254 135 -297 344 -18 91 -39 303 -30 312 2 2 59 4 127 4 105 0
125 3 145 19 20 16 22 23 14 47 -13 37 -35 42 -177 43 l-118 1 0 90 0 90 138
0 c146 0 162 5 162 47 0 30 -28 43 -93 43 -30 0 -88 3 -130 6 l-77 7 0 58 0
59 142 0 c118 0 145 3 160 17 22 20 23 41 1 65 -14 16 -33 18 -155 18 l-138 0
0 43 c0 123 38 243 104 331 88 117 194 164 371 165 55 0 130 -6 166 -13z"/>
<path d="M10820 8956 c-14 -17 -10 -42 16 -126 24 -76 24 -384 1 -522 -36
-208 -102 -356 -198 -443 -154 -139 -340 -191 -599 -166 -229 21 -349 69 -468
185 -197 190 -252 380 -229 793 8 154 8 195 -3 208 -15 18 -54 20 -68 3 -17
-22 -35 -306 -29 -474 6 -177 18 -238 73 -353 109 -232 304 -393 536 -442 136
-29 367 -36 488 -15 217 37 410 178 505 365 79 157 109 322 109 601 1 232 -9
304 -47 362 -25 37 -66 48 -87 24z"/>
<path d="M11109 8904 c-9 -12 -16 -69 -21 -193 -15 -351 -36 -511 -89 -679
-60 -186 -129 -301 -232 -383 -100 -80 -190 -113 -361 -134 -140 -17 -204 -44
-260 -105 -38 -42 -75 -110 -96 -175 l-13 -40 -29 64 c-39 87 -105 178 -179
245 -48 43 -103 76 -248 147 -167 82 -192 98 -251 158 -102 102 -169 248 -206
446 -13 68 -18 151 -18 343 -1 238 -3 255 -21 268 -25 18 -39 18 -57 -3 -34
-39 -29 -520 7 -691 43 -206 143 -385 273 -487 31 -25 134 -83 227 -129 158
-78 174 -89 226 -148 84 -96 117 -150 174 -282 34 -79 61 -127 78 -140 27 -20
27 -20 53 0 19 14 37 50 65 129 88 249 114 277 285 295 129 14 189 32 299 88
71 36 108 64 176 131 73 73 93 101 132 181 116 240 151 442 159 911 2 129 0
170 -11 183 -17 21 -45 21 -62 0z"/>
<path d="M8993 7178 c-109 -139 -283 -325 -417 -447 -134 -123 -324 -280 -394
-326 l-37 -24 -170 24 c-94 13 -388 60 -655 104 -797 132 -1073 163 -1445 164
-236 1 -336 -9 -471 -43 -151 -39 -273 -121 -319 -215 -32 -64 -28 -174 9
-250 101 -206 435 -375 866 -440 151 -23 492 -31 657 -16 528 48 974 198 1436
484 l128 79 112 -12 c62 -6 228 -14 370 -17 l258 -6 13 -31 c20 -46 73 -93
135 -118 50 -21 72 -23 221 -23 114 1 196 7 265 19 163 30 440 117 765 241
351 134 501 187 508 181 8 -8 -83 -128 -135 -178 -38 -37 -70 -55 -153 -87
-108 -42 -242 -114 -272 -147 -48 -54 -18 -124 52 -124 52 0 175 63 291 150
82 62 107 74 205 105 62 19 117 35 123 35 7 0 8 -21 5 -62 -10 -120 53 -178
192 -178 153 0 352 70 713 252 129 65 236 118 238 118 2 0 -9 -18 -23 -40 -56
-84 -37 -183 42 -224 98 -52 256 -33 885 103 210 46 367 70 649 101 204 22
242 34 248 77 2 10 -6 27 -16 36 -18 17 -31 16 -243 -8 -336 -39 -465 -60
-794 -131 -283 -62 -523 -104 -590 -104 -44 0 -102 18 -108 34 -10 26 34 94
124 190 69 75 89 102 89 125 0 40 -22 55 -74 49 -31 -4 -114 -43 -288 -136
-373 -200 -623 -306 -785 -333 -154 -25 -195 18 -128 136 23 40 25 41 147 74
269 74 485 161 552 225 28 26 36 41 36 68 0 54 -28 72 -113 76 -186 10 -484
-121 -622 -273 -25 -27 -49 -39 -120 -59 -49 -13 -90 -24 -92 -23 -1 1 18 34
43 72 33 53 44 80 44 111 0 92 -80 102 -271 36 -64 -23 -232 -86 -375 -140
-429 -165 -642 -228 -864 -258 -155 -20 -266 -15 -338 16 -29 13 -57 30 -62
40 -8 14 3 18 92 29 181 22 377 81 472 141 107 68 115 166 16 215 -73 37 -295
12 -433 -49 -103 -45 -209 -132 -244 -200 l-15 -29 -252 7 c-138 4 -278 11
-310 14 l-59 7 126 102 c167 136 354 318 496 483 185 215 211 256 179 288 -28
28 -56 13 -115 -60z m2577 -610 c-72 -34 -270 -102 -276 -95 -8 8 113 66 201
96 120 41 163 40 75 -1z m-5220 -22 c251 -28 495 -64 1017 -150 280 -46 535
-87 568 -91 33 -4 64 -10 69 -12 12 -8 -160 -107 -329 -189 -472 -228 -1042
-338 -1535 -294 -516 46 -911 230 -970 451 -39 144 123 258 420 299 99 13 594
4 760 -14z m3218 -25 c17 -10 5 -19 -63 -53 -95 -48 -327 -108 -409 -108 l-31
1 35 29 c53 45 186 108 265 124 78 16 183 20 203 7z"/>
<path d="M12280 6840 c-23 -23 -24 -33 -10 -61 22 -40 110 -10 110 39 0 43
-64 58 -100 22z"/>
</g>
</svg>
