<svg width="1373" height="896" viewBox="0 0 1373 896" fill="none" xmlns="http://www.w3.org/2000/svg">
<path d="M335.527 2.92969C334.673 4.63867 334.428 7.20215 334.795 8.78906C335.771 12.3291 363.359 42.6025 377.275 55.1758C404.497 79.9561 418.779 88.8672 483.232 120.972C540.605 149.658 557.573 160.4 565.996 173.584C570.268 180.542 577.348 179.565 577.348 172.119C577.348 162.964 558.427 146.606 529.619 130.615C521.928 126.343 513.017 121.46 509.721 119.629L503.74 116.211L509.111 113.159C537.676 96.4356 574.785 84.1065 615.19 78.0029C638.628 74.3408 684.648 74.0967 707.964 77.2705C759.844 84.4727 804.643 101.685 836.504 126.709C840.288 129.761 843.462 132.568 843.462 133.057C843.462 133.545 837.602 135.132 830.4 136.597C814.653 139.893 791.582 147.339 781.694 152.344C773.882 156.25 761.675 165.039 756.914 170.166C754.35 172.852 754.106 173.706 755.327 176.392C757.524 181.03 761.553 180.176 770.952 173.218C786.943 161.377 802.934 155.273 836.748 148.315C875.322 140.259 901.079 132.69 925.249 122.437C955.644 109.497 981.523 91.0645 1004.35 65.918C1018.88 49.9268 1026.57 39.5508 1026.57 36.0107C1026.57 32.3486 1022.54 28.8086 1019.49 29.7852C1018.14 30.2734 1014.85 33.4473 1012.16 36.9873C1003.74 48.2178 984.941 68.3594 975.42 76.5381C956.499 92.7734 930.864 107.3 905.107 116.577C894.121 120.605 860.429 130.615 858.11 130.615C857.622 130.615 856.889 129.517 856.523 128.296C856.279 127.075 851.03 122.07 845.171 117.432C807.695 87.6465 756.548 68.9697 696.611 63.3545C674.638 61.4014 631.67 62.5 610.307 65.7959C589.678 68.9697 568.803 74.0967 549.883 80.5664C532.06 86.6699 501.787 101.44 496.05 106.812L491.899 110.84L466.509 98.2666C438.432 84.3506 419.267 73.1201 405.351 62.6221C394.853 54.6875 355.791 16.1133 348.467 6.34766C344.682 1.34277 342.973 -3.57628e-07 340.288 -3.57628e-07C337.846 -3.57628e-07 336.382 0.854492 335.527 2.92969Z" fill="black"/>
<path d="M2.76378 22.7054C-0.0438325 25.513 -0.287973 26.4896 0.200308 33.3255C1.54308 49.1947 16.4357 85.3275 30.4737 106.446C53.0568 140.625 103.838 180.786 160.967 209.595C170.733 214.478 178.057 218.506 177.324 218.506C175.127 218.506 151.812 210.205 137.285 204.224C129.961 201.294 108.843 191.651 90.6544 182.862C51.714 164.429 46.7091 163.086 40.3614 169.434C37.0655 172.608 36.5773 174.073 36.5773 179.688C36.5773 185.059 37.6759 188.477 41.9484 197.266C49.3946 212.647 60.0148 226.441 78.5694 244.751C110.186 276.123 144.121 294.312 205.034 312.622C213.457 315.186 219.439 317.261 218.462 317.261C217.485 317.383 208.086 315.674 197.71 313.599C176.836 309.449 170.366 309.571 166.948 313.721C157.061 325.928 180.62 350.098 230.669 379.151C289.385 413.086 343.828 430.054 418.535 437.622C435.381 439.209 437.7 439.209 440.264 437.622C443.682 435.425 444.048 430.42 440.996 427.979C439.775 427.002 431.231 420.288 421.831 413.086C374.102 376.343 336.382 327.393 323.076 284.912C309.893 242.92 315.63 215.088 343.218 187.622C354.57 176.392 356.035 173.218 351.763 169.312C350.542 168.091 347.979 167.237 346.27 167.237C341.875 167.237 286.943 154.908 264.238 148.804C208.818 133.911 159.868 115.845 118.975 95.2152C83.5743 77.3929 58.1837 60.0589 34.7462 37.7201C27.422 30.64 19.7316 23.682 17.7784 22.2171C12.8956 18.433 6.79211 18.6771 2.76378 22.7054Z" fill="black"/>
<path d="M305.376 72.2647C302.324 75.3164 303.789 79.833 310.747 87.8897C333.086 113.402 347.246 124.999 372.515 137.938L385.576 144.652L378.496 154.662C364.946 173.705 355.303 195.8 350.054 220.092C347.979 229.98 347.368 236.693 347.368 252.685C347.368 274.413 348.955 286.01 354.692 304.32C372.393 360.106 420.977 402.831 477.251 411.986C492.266 414.306 515.337 414.306 529.863 411.864C573.442 404.418 612.993 378.661 638.384 341.308C643.144 334.228 642.534 333.373 648.149 354.125C650.225 361.937 653.032 369.994 654.375 372.191C658.281 378.661 664.995 376.586 666.948 368.041C667.436 365.966 670.488 357.177 673.784 348.51C679.888 331.908 681.719 325.927 682.939 318.358C684.038 311.645 685.503 311.767 687.822 318.847C696.367 345.214 717.363 373.412 740.312 389.647C783.159 420.165 837.236 424.682 884.355 401.61C925.493 381.591 954.546 342.406 962.724 296.02C965.532 279.662 964.433 251.098 960.161 235.229C956.865 222.533 954.912 218.627 945.757 205.688C942.583 201.293 939.653 196.288 939.287 194.701C938.921 192.992 938.432 190.307 938.066 188.598C937.7 186.889 934.404 181.884 930.62 177.611L923.906 169.555L930.376 166.747C933.916 165.16 942.583 161.864 949.663 159.423C969.805 152.343 995.195 139.281 1006.55 130.248C1016.8 122.069 1029.37 108.153 1034.75 99.1201C1038.16 93.2608 1037.92 88.5 1033.89 87.2793C1029.86 86.0586 1027.42 87.6455 1022.29 94.8477C1010.09 111.815 994.219 125.487 975.298 134.887C971.636 136.84 957.109 142.943 942.949 148.559C919.023 158.08 905.596 164.794 896.318 171.752C892.534 174.682 892.534 174.682 891.68 172.118C890.337 168.09 884.966 162.353 882.28 162.353C880.815 162.353 869.585 166.259 857.012 171.02C844.56 175.78 831.621 180.785 828.203 181.884C804.643 190.307 704.546 229.735 701.982 231.688C699.419 233.642 695.391 243.651 679.399 289.184C668.047 321.532 659.624 343.749 659.136 342.772C657.793 340.453 630.327 245.482 629.351 240.233C628.374 235.106 628.984 235.595 603.472 217.04C594.072 210.082 564.287 188.231 537.31 168.456C481.279 127.44 482.5 128.173 478.716 128.173C471.758 128.173 449.907 142.699 440.508 153.563L435.381 159.667L426.714 153.075C421.953 149.535 407.183 141.112 393.877 134.398C380.693 127.685 366.045 119.75 361.528 116.698C349.565 108.642 334.063 94.8477 323.076 82.3965C313.188 71.166 308.916 68.7246 305.376 72.2647ZM494.951 153.441L511.064 165.282L503.374 172.973C489.58 186.767 482.744 206.054 485.552 223.021C491.777 260.619 532.305 277.343 567.217 256.835C574.907 252.318 584.917 241.82 589.8 233.275L593.95 225.951L604.448 233.764C610.186 237.914 615.19 242.064 615.679 242.675C616.045 243.407 615.068 247.68 613.359 252.196C594.072 303.466 533.037 327.392 481.401 303.954C456.255 292.602 436.968 270.019 429.521 243.407C421.343 214.232 431.108 180.175 454.302 157.836C459.551 152.709 475.542 141.601 477.617 141.601C478.228 141.601 486.04 146.972 494.951 153.441ZM408.892 156.249C414.019 159.057 420.61 163.207 423.418 165.526L428.423 169.921L425.981 173.827C422.319 179.931 417.437 193.725 415.483 203.612C412.31 220.336 413.53 236.083 419.39 253.905C428.301 281.371 452.471 306.396 481.035 317.748C496.05 323.729 504.473 325.194 523.638 325.194C545 325.072 554.888 322.753 573.076 313.842C592.485 304.198 609.453 288.329 618.608 271.239C621.05 266.723 622.637 264.892 623.003 266.112C623.369 267.089 626.909 279.418 631.06 293.456C638.262 318.603 638.384 319.091 636.064 321.532C634.844 322.997 632.402 326.537 630.693 329.589C628.984 332.641 623.857 339.599 619.463 345.092C597.368 372.68 564.775 392.211 529.131 399.291C524.248 400.268 513.14 401 503.496 401C478.716 401 458.452 396.239 437.822 385.497C370.317 350.341 341.509 266.967 371.538 193.358C378.008 177.489 394.487 151.366 398.027 151.366C398.76 151.366 403.643 153.563 408.892 156.249ZM927.812 194.945C950.64 227.904 957.598 270.019 946.611 308.227C939.897 331.786 929.643 348.754 911.333 366.82C892.778 385.009 873.247 395.629 847.734 401.122C835.893 403.563 810.625 403.93 800.127 401.732C746.416 390.502 708.208 353.026 695.757 299.438L693.193 288.817L697.832 275.634C700.273 268.432 702.593 262.816 702.837 263.061C703.081 263.305 705.156 267.577 707.353 272.582C720.537 303.1 747.27 325.805 780.229 334.716C793.535 338.378 820.024 338.622 833.086 335.204C852.617 330.199 874.834 316.405 887.163 301.879C905.229 280.272 913.774 249.877 909.38 222.777C908.037 214.599 902.788 195.678 900.102 189.33C899.126 187.133 898.393 185.058 898.638 184.936C898.882 184.813 901.689 182.616 904.985 180.175L910.967 175.658L916.338 180.907C919.267 183.837 924.394 190.063 927.812 194.945ZM880.937 185.79C892.656 203.49 897.295 218.017 897.295 237.426C897.417 261.474 888.994 281.737 872.148 298.461C866.777 303.832 859.209 310.058 855.303 312.377C845.903 317.87 830.4 322.997 817.949 324.706C799.639 327.147 777.666 322.509 759.233 312.377C746.172 305.053 729.692 288.329 722.978 275.268C717.485 264.647 713.335 252.196 712.725 244.872L712.236 240.233L728.472 234.008C737.383 230.712 744.951 228.271 745.439 228.759C745.806 229.125 746.66 232.543 747.148 236.205C749.346 252.563 761.431 268.92 777.056 276.732C784.624 280.395 787.554 281.127 796.831 281.737C805.742 282.226 809.404 281.859 816.118 279.784C831.377 275.146 842.974 265.136 850.054 250.243C853.594 242.797 853.838 241.454 853.838 228.271C853.838 215.453 853.594 213.622 850.42 206.908C848.589 203.002 845.659 197.875 843.95 195.556C842.241 193.358 841.02 191.283 841.142 191.039C841.875 190.429 873.247 178.344 874.59 178.344C875.322 178.222 878.13 181.64 880.937 185.79Z" fill="black"/>
<path d="M1360.19 80.567C1358.6 81.1773 1344.44 89.4781 1328.57 98.8775C1274.86 130.982 1243 146.851 1211.14 157.349C1180.13 167.725 1159.38 171.509 1086.99 179.932C1029.01 186.768 1011.07 187.623 964.312 185.181C959.307 184.937 958.819 185.181 958.453 187.989C958.331 189.82 959.918 193.726 962.359 197.755C977.984 222.291 983.721 244.752 982.256 274.659C980.669 306.519 972.247 330.689 953.692 357.423C936.602 381.959 916.827 399.049 890.093 412.598C877.642 418.824 840.411 432.13 835.406 432.13C833.941 432.13 832.476 432.984 831.988 433.961C831.621 434.937 829.424 436.768 826.983 437.867C824.663 438.966 822.832 440.553 823.077 441.163C824.053 444.581 865.435 455.811 883.746 457.642C938.189 463.258 1013.63 450.806 1071.61 426.514C1092.12 417.847 1115.07 404.786 1120.81 398.316C1124.35 394.41 1124.83 388.795 1121.9 385.865C1119.46 383.424 1118.24 383.302 1087.97 383.424C1070.39 383.546 1053.79 383.057 1050.37 382.325C1042.44 380.616 1030.23 376.099 1030.23 374.757C1030.23 374.268 1033.16 373.414 1036.7 372.926C1060.14 369.996 1078.94 366.944 1089.56 364.259C1133.38 353.638 1186.97 330.201 1224.32 305.421C1260.33 281.495 1272.05 268.677 1264.73 261.353C1263.26 259.888 1260.58 258.79 1258.38 258.79C1256.3 258.79 1243.24 262.086 1229.33 265.992C1185.87 278.443 1167.19 281.373 1138.87 280.396C1128.37 280.03 1115.92 278.809 1110.8 277.711C1099.81 275.269 1081.26 268.433 1080.65 266.724C1080.4 265.87 1087.11 264.283 1097.12 262.696C1122.88 258.546 1139.97 254.395 1163.29 246.583C1223.1 226.807 1272.91 197.877 1316.49 157.593C1345.54 130.738 1372.03 97.2906 1372.03 87.525C1372.03 81.7877 1365.92 78.1256 1360.19 80.567Z" fill="black"/>
<path d="M631.67 386.719C614.703 391.846 600.787 403.687 592.73 420.166C585.04 435.547 584.43 440.674 583.819 493.409C582.965 556.763 585.528 581.177 595.172 601.319C605.059 622.193 628.985 633.545 663.042 633.545C699.541 633.545 715.654 623.658 726.274 594.849C734.209 572.876 738.237 532.349 736.772 489.502C735.063 442.383 731.035 427.002 715.898 408.57C701.494 391.114 688.311 385.865 657.305 385.01C642.291 384.644 637.652 384.888 631.67 386.719ZM675.127 398.438C684.771 400.513 694.17 405.03 700.396 410.645C710.649 420.044 719.316 436.89 720.903 451.05L721.758 457.764H700.152C678.911 457.764 678.545 457.764 675.616 460.694C673.662 462.647 672.808 464.478 673.296 465.943C675.005 470.826 677.08 471.192 700.884 471.192H723.833V481.69V492.066L702.715 491.211C680.376 490.357 677.08 490.845 675.86 495.606C675.493 496.949 676.104 499.146 677.325 500.611C679.156 502.93 680.987 503.174 701.616 503.785L723.833 504.517V515.869V527.344L702.471 526.49C686.114 525.879 680.742 526.123 679.278 527.344C677.08 529.175 676.836 535.401 679.033 536.744C679.766 537.232 690.142 538.208 701.86 538.941L723.223 540.161L722.856 546.265C722.246 556.519 718.95 575.074 716.265 584.107C711.626 600.098 704.546 610.718 695.635 615.235C683.184 621.704 656.206 622.803 636.675 617.676C615.069 612.183 605.67 601.197 600.421 575.684C598.223 564.576 595.66 538.697 596.759 537.598C597.003 537.354 603.961 537.11 612.261 537.11C625.079 537.11 627.52 536.744 629.962 534.79C632.403 532.837 632.647 531.983 631.67 529.053C630.084 524.536 627.398 523.926 610.064 523.804L595.66 523.682V512.696V501.709H612.506C630.328 501.709 632.281 501.099 632.281 495.972C632.281 492.31 628.863 490.723 620.928 490.723C617.266 490.723 610.186 490.357 605.059 489.991L595.66 489.136V482.056V474.854H612.994C627.398 474.854 630.694 474.488 632.525 472.779C635.211 470.337 635.333 467.774 632.647 464.844C630.938 462.891 628.619 462.647 613.726 462.647H596.881V457.398C596.881 442.383 601.519 427.735 609.576 416.993C620.318 402.71 633.257 396.973 654.864 396.851C661.578 396.851 670.733 397.583 675.127 398.438Z" fill="black"/>
<path d="M747.026 498.536C745.317 500.611 745.806 503.662 748.979 513.916C751.909 523.194 751.909 560.791 749.102 577.637C744.707 603.028 736.65 621.094 724.932 631.714C706.133 648.682 683.428 655.03 651.812 651.978C623.858 649.414 609.209 643.555 594.683 629.395C570.635 606.201 563.921 583.008 566.729 532.593C567.705 513.794 567.705 508.789 566.363 507.203C564.532 505.005 559.771 504.761 558.062 506.836C555.987 509.522 553.789 544.19 554.522 564.698C555.254 586.304 556.719 593.75 563.433 607.788C576.739 636.109 600.542 655.762 628.863 661.743C645.464 665.283 673.662 666.138 688.433 663.575C714.922 659.058 738.481 641.846 750.078 619.019C759.722 599.854 763.384 579.712 763.384 545.655C763.506 517.334 762.285 508.545 757.646 501.465C754.595 496.949 749.59 495.606 747.026 498.536Z" fill="black"/>
<path d="M782.305 504.883C781.207 506.348 780.352 513.306 779.742 528.443C777.911 571.289 775.347 590.821 768.877 611.328C761.553 634.034 753.13 648.072 740.557 658.081C728.35 667.847 717.364 671.875 696.49 674.439C679.4 676.514 671.587 679.81 664.751 687.256C660.113 692.383 655.596 700.684 653.033 708.619L651.446 713.501L647.906 705.689C643.145 695.069 635.088 683.96 626.055 675.782C620.196 670.533 613.482 666.504 595.782 657.837C575.396 647.828 572.344 645.874 565.142 638.55C552.691 626.099 544.512 608.277 539.995 584.107C538.408 575.806 537.798 565.674 537.798 542.237C537.676 513.184 537.432 511.109 535.235 509.522C532.183 507.325 530.474 507.325 528.277 509.888C524.126 514.649 524.737 573.365 529.131 594.239C534.38 619.385 546.587 641.236 562.456 653.687C566.241 656.739 578.814 663.819 590.166 669.434C609.453 678.955 611.407 680.298 617.754 687.5C628.008 699.219 632.036 705.811 638.995 721.924C643.145 731.568 646.441 737.427 648.516 739.014C651.812 741.455 651.812 741.455 654.986 739.014C657.305 737.305 659.502 732.911 662.92 723.267C673.663 692.871 676.836 689.453 697.71 687.256C713.457 685.547 720.782 683.35 734.209 676.514C742.876 672.12 747.393 668.702 755.694 660.523C764.605 651.612 767.046 648.194 771.807 638.428C785.967 609.131 790.24 584.473 791.216 527.222C791.46 511.475 791.216 506.47 789.874 504.883C787.798 502.32 784.38 502.32 782.305 504.883Z" fill="black"/>
<path d="M524.005 715.576C510.699 732.544 489.459 755.249 473.101 770.142C456.744 785.156 433.55 804.321 425.005 809.936L420.489 812.866L399.737 809.936C388.262 808.35 352.373 802.612 319.781 797.241C222.49 781.128 188.799 777.344 143.389 777.222C114.58 777.1 102.373 778.32 85.8936 782.471C67.461 787.231 52.5684 797.241 46.9532 808.716C43.0469 816.528 43.5352 829.956 48.0518 839.233C60.3809 864.38 101.152 885.01 153.765 892.944C172.197 895.752 213.823 896.729 233.965 894.897C298.418 889.038 352.862 870.728 409.258 835.815L424.883 826.172L438.555 827.637C446.124 828.369 466.387 829.346 483.721 829.712L515.215 830.444L516.802 834.228C519.244 839.844 525.714 845.581 533.282 848.633C539.385 851.196 542.071 851.44 560.259 851.44C574.176 851.318 584.185 850.586 592.608 849.121C612.506 845.459 646.319 834.839 685.992 819.702C728.839 803.345 747.149 796.875 748.004 797.607C748.98 798.584 737.872 813.232 731.524 819.336C726.886 823.853 722.979 826.05 712.848 829.956C699.664 835.083 683.307 843.872 679.644 847.9C673.785 854.492 677.447 863.037 685.992 863.037C692.34 863.037 707.354 855.347 721.515 844.727C731.524 837.158 734.576 835.693 746.539 831.909C754.107 829.59 760.821 827.637 761.554 827.637C762.408 827.637 762.53 830.2 762.164 835.205C760.943 849.853 768.634 856.934 785.602 856.934C804.278 856.934 828.57 848.389 872.638 826.172C888.385 818.237 901.446 811.768 901.691 811.768C901.935 811.768 900.592 813.965 898.883 816.65C892.047 826.904 894.366 838.989 904.01 843.994C915.973 850.342 935.26 848.022 1012.04 831.421C1037.68 825.806 1056.84 822.876 1091.27 819.092C1116.17 816.406 1120.81 814.941 1121.54 809.692C1121.78 808.472 1120.81 806.396 1119.59 805.298C1117.39 803.223 1115.8 803.345 1089.92 806.274C1048.91 811.035 1033.16 813.599 992.999 822.266C958.453 829.834 929.156 834.961 920.978 834.961C915.607 834.961 908.527 832.764 907.794 830.811C906.573 827.637 911.944 819.336 922.931 807.617C931.354 798.462 933.795 795.166 933.795 792.358C933.795 787.476 931.11 785.644 924.762 786.377C920.978 786.865 910.846 791.626 889.606 802.978C844.073 827.393 813.556 840.332 793.78 843.628C774.981 846.68 769.977 841.431 778.155 827.026C780.963 822.144 781.207 822.021 796.1 817.993C828.937 808.96 855.304 798.34 863.483 790.527C866.9 787.353 867.877 785.522 867.877 782.227C867.877 775.635 864.459 773.437 854.083 772.949C831.378 771.728 795.001 787.72 778.155 806.274C775.103 809.57 772.174 811.035 763.507 813.477C757.525 815.063 752.52 816.406 752.276 816.284C752.154 816.162 754.474 812.134 757.525 807.495C761.554 801.025 762.896 797.729 762.896 793.945C762.896 782.715 753.131 781.494 729.815 789.551C722.003 792.358 701.495 800.049 684.039 806.641C631.671 826.782 605.67 834.473 578.57 838.135C559.649 840.576 546.099 839.966 537.31 836.182C533.77 834.595 530.352 832.52 529.742 831.299C528.765 829.59 530.108 829.102 540.972 827.759C563.067 825.073 586.993 817.871 598.59 810.547C611.651 802.246 612.628 790.283 600.543 784.302C591.632 779.785 564.532 782.837 547.686 790.283C535.113 795.776 522.173 806.396 517.901 814.697L516.07 818.237L485.308 817.383C468.462 816.894 451.373 816.04 447.466 815.674L440.264 814.819L455.645 802.368C476.031 785.767 498.858 763.55 516.192 743.408C538.775 717.163 541.949 712.158 538.043 708.252C534.625 704.834 531.207 706.665 524.005 715.576ZM838.58 790.039C829.791 794.189 805.621 802.49 804.889 801.636C803.912 800.659 818.683 793.579 829.425 789.917C844.073 784.912 849.322 785.034 838.58 790.039ZM201.372 792.725C232.012 796.143 261.797 800.537 325.518 811.035C359.698 816.65 390.826 821.655 394.854 822.144C398.882 822.632 402.666 823.364 403.277 823.608C404.742 824.585 383.746 836.67 363.116 846.68C305.498 874.512 235.918 887.939 175.737 882.568C112.749 876.953 64.5313 854.492 57.3292 827.515C52.5684 809.936 72.3438 796.02 108.599 791.016C120.684 789.429 181.109 790.527 201.372 792.725ZM594.195 795.776C596.27 796.997 594.805 798.096 586.505 802.246C574.908 808.105 546.588 815.43 536.578 815.43L532.794 815.308L537.066 811.768C543.536 806.274 559.771 798.584 569.415 796.631C578.936 794.678 591.754 794.189 594.195 795.776Z" fill="black"/>
<path d="M925.25 756.835C922.442 759.643 922.32 760.864 924.029 764.282C926.715 769.165 937.457 765.502 937.457 759.521C937.457 754.272 929.644 752.441 925.25 756.835Z" fill="black"/>
</svg>
