<svg width="719" height="682" viewBox="0 0 719 682" fill="none" xmlns="http://www.w3.org/2000/svg">
<path d="M530.2 56.9C474.5 -26.9 264.7 -7.30001 246.7 47.5C238.8 71.7 273.6 86.9 264.4 115.5C253.6 149.1 200.8 143.1 109.5 211.7C94 223.4 -0.499995 294.3 0.500005 389.6C1.40001 478.5 75 565.5 154.8 582.4C236.5 599.7 268.3 532.2 351.2 548.5C454.3 568.9 466.5 682 528.9 682C649.8 682.1 775.6 255 689.8 199.5C655.9 177.6 601.9 222.1 564 190.1C527.4 159.3 561.7 104.2 530.2 56.9Z" fill="#E4EFEF"/>
<path d="M286.4 601.7C272.8 616.6 281.4 641.6 299.1 655.6C313.7 667.2 338.3 674.3 355.7 665.8C377.4 655.3 379.6 624.7 360 606C340 586.8 301.8 584.7 286.4 601.7Z" fill="#E4EFEF"/>
<path d="M148 67.7C130.9 72.4 126.4 120.3 138 129.7C169.5 155.1 191.6 130.4 178 95.7C171.8 79.8 158.7 64.7 148 67.7Z" fill="#E4EFEF"/>
<path d="M589.2 103.8C572.1 105.7 567.6 124.8 579.2 128.6C610.7 138.7 632.8 128.9 619.2 115C613 108.7 599.9 102.7 589.2 103.8Z" fill="#E4EFEF"/>
<path d="M222.9 508.1C222.9 508.1 214.8 517.3 257.6 560C257.6 543.5 252.6 524.8 275.4 517.6C248 513.9 222.9 508.1 222.9 508.1Z" stroke="#272130" stroke-width="6" stroke-miterlimit="10" stroke-linecap="round" stroke-linejoin="round"/>
<path d="M222.9 508.1C222.9 508.1 214.8 517.3 257.6 560C257.6 543.5 252.6 524.8 275.4 517.6C248 513.9 222.9 508.1 222.9 508.1Z" fill="#372E42"/>
<path d="M422.4 495.6C422.4 495.6 455 507 470 507C485 507 497 501.3 497 501.3L482 495.6C504 495.6 520.5 479 520.5 479L503 475C524.5 471.3 534 449 534 449C530 449 501.4 444.4 501.4 437.7C475.6 463.5 435.5 490.3 422.4 495.6Z" fill="#372E42"/>
<path opacity="0.83" d="M501.4 437.7C475.6 463.5 435.5 490.3 422.4 495.6C422.4 495.6 445.3 503.6 461.5 506.2C464.4 502.6 467.1 499.4 468.8 497.7C474 492.5 495.7 489.4 495.7 483.2C495.7 477 490.4 473.9 503.1 466.8C515.8 459.7 514.5 453.9 514.5 453.9L515.9 445.9C508.5 443.8 501.4 441 501.4 437.7Z" fill="#2D2638"/>
<path d="M446.9 483.2C446.9 483.2 456.6 494.1 463.6 494.1" stroke="#272130" stroke-width="4" stroke-miterlimit="10" stroke-linecap="round" stroke-linejoin="round"/>
<path d="M487.9 483.2C475.2 483.2 468.8 468.8 468.8 468.8" stroke="#272130" stroke-width="4" stroke-miterlimit="10" stroke-linecap="round" stroke-linejoin="round"/>
<path d="M487.9 458C487.9 458 491.6 458 503.6 458" stroke="#272130" stroke-width="4" stroke-miterlimit="10" stroke-linecap="round" stroke-linejoin="round"/>
<path d="M422.4 495.6C422.4 495.6 455 507 470 507C485 507 497 501.3 497 501.3L482 495.6C504 495.6 520.5 479 520.5 479L503 475C524.5 471.3 534 449 534 449C530 449 501.4 444.4 501.4 437.7C475.6 463.5 435.5 490.3 422.4 495.6Z" stroke="#272130" stroke-width="6" stroke-miterlimit="10" stroke-linecap="round" stroke-linejoin="round"/>
<path d="M156.1 277.5C174.325 277.5 189.1 261.382 189.1 241.5C189.1 221.618 174.325 205.5 156.1 205.5C137.875 205.5 123.1 221.618 123.1 241.5C123.1 261.382 137.875 277.5 156.1 277.5Z" fill="white"/>
<path d="M145.4 256.6C151.751 256.6 156.9 251.317 156.9 244.8C156.9 238.283 151.751 233 145.4 233C139.049 233 133.9 238.283 133.9 244.8C133.9 251.317 139.049 256.6 145.4 256.6Z" fill="#1E1826"/>
<path d="M142.6 246C145.417 246 147.7 243.672 147.7 240.8C147.7 237.928 145.417 235.6 142.6 235.6C139.783 235.6 137.5 237.928 137.5 240.8C137.5 243.672 139.783 246 142.6 246Z" fill="white"/>
<path d="M148.3 252.9C149.349 252.9 150.2 252.049 150.2 251C150.2 249.951 149.349 249.1 148.3 249.1C147.251 249.1 146.4 249.951 146.4 251C146.4 252.049 147.251 252.9 148.3 252.9Z" fill="white"/>
<path d="M156.1 277.5C174.325 277.5 189.1 261.382 189.1 241.5C189.1 221.618 174.325 205.5 156.1 205.5C137.875 205.5 123.1 221.618 123.1 241.5C123.1 261.382 137.875 277.5 156.1 277.5Z" stroke="#204751" stroke-width="6" stroke-miterlimit="10" stroke-linecap="round" stroke-linejoin="round"/>
<path d="M326.6 195.7C326.6 195.7 356.6 140.1 433.1 140.1C422.6 150.6 422.6 161.1 422.6 161.1C422.6 161.1 450.7 150.3 475.1 158.1C458.6 174.6 458.6 183.6 458.6 183.6C475.1 167.1 510.4 188.3 516.5 194.5C483.7 206.5 493.2 208.4 493.2 208.4C493.2 208.4 513 208.3 531.9 227.2C512.7 233.1 490.7 241.6 494.1 266.1C473.7 247.2 472 230.3 326.6 195.7Z" fill="#372E42"/>
<path opacity="0.83" d="M503.2 240.6L495.8 227.9C495.8 227.9 477.8 220.9 468.9 212C460 203.1 455.6 201.7 447 193.1C438.4 184.5 429.1 182.7 417.6 182.7C406.1 182.7 395.6 171.6 390 166C387.2 163.2 371.5 163.2 356.5 163.9C335.7 179 326.7 195.7 326.7 195.7C472 230.3 473.7 247.2 494 266C492.4 254.5 496.5 246.5 503.2 240.6Z" fill="#2D2638"/>
<path d="M367.6 199.4C367.6 199.4 386.2 175.1 404.7 166" stroke="#272130" stroke-width="4" stroke-miterlimit="10" stroke-linecap="round" stroke-linejoin="round"/>
<path d="M397.5 205.5C397.5 205.5 413.4 186.9 447 175" stroke="#272130" stroke-width="4" stroke-miterlimit="10" stroke-linecap="round" stroke-linejoin="round"/>
<path d="M429.2 219.7C429.2 219.7 448.8 197 482.6 195.7" stroke="#272130" stroke-width="4" stroke-miterlimit="10" stroke-linecap="round" stroke-linejoin="round"/>
<path d="M455.9 236.1C455.9 236.1 484.1 219.7 503.6 219.7" stroke="#272130" stroke-width="4" stroke-miterlimit="10" stroke-linecap="round" stroke-linejoin="round"/>
<path d="M326.6 195.7C326.6 195.7 356.6 140.1 433.1 140.1C422.6 150.6 422.6 161.1 422.6 161.1C422.6 161.1 450.7 150.3 475.1 158.1C458.6 174.6 458.6 183.6 458.6 183.6C475.1 167.1 510.4 188.3 516.5 194.5C483.7 206.5 493.2 208.4 493.2 208.4C493.2 208.4 513 208.3 531.9 227.2C512.7 233.1 490.7 241.6 494.1 266.1C473.7 247.2 472 230.3 326.6 195.7Z" stroke="#272130" stroke-width="6" stroke-miterlimit="10" stroke-linecap="round" stroke-linejoin="round"/>
<path d="M514.7 317.7C514.7 317.7 530 331.1 554 322.7C578 314.3 638.7 250.3 683.3 261.7C683.3 261.7 660 282.4 665.3 311C670.6 339.7 651.3 362.3 651.3 362.3C651.3 362.3 667.3 373 651.3 389C635.3 405 609 400.7 612 422C615 443.3 630.7 444.3 634 463C637.3 481.7 630 523.7 650 533C650 533 628.7 572.3 568 458.3C540 405.2 532.7 397 514.7 397C508.7 381 514.7 317.7 514.7 317.7Z" fill="#372E42"/>
<path opacity="0.83" d="M514.7 317.7C514.7 317.7 508.7 381 514.7 397C532.7 397 540 405.2 568 458.3C568.1 458.5 568.2 458.7 568.3 458.9C575.1 441.7 575.6 406.9 575.6 395.3C575.6 379.6 593.8 371.5 597.6 349.3C599.8 336.5 592.2 317 585.3 302.7C572.4 312.1 561.4 320.1 553.9 322.7C530 331.1 514.7 317.7 514.7 317.7Z" fill="#2D2638"/>
<path d="M531.8 351.4C531.8 351.4 556.1 357 589.1 341.1C622.1 325.2 628.1 307.7 643.1 307.7" stroke="#272130" stroke-width="4" stroke-miterlimit="10" stroke-linecap="round" stroke-linejoin="round"/>
<path d="M530.8 371.7C530.8 371.7 557.3 371.7 587.5 371.7C617.7 371.7 636.6 362.5 636.6 362.5" stroke="#272130" stroke-width="4" stroke-miterlimit="10" stroke-linecap="round" stroke-linejoin="round"/>
<path d="M530.8 384.6C530.8 384.6 569.7 384 597.7 406" stroke="#272130" stroke-width="4" stroke-miterlimit="10" stroke-linecap="round" stroke-linejoin="round"/>
<path d="M526.3 392C526.3 392 581.7 407.1 613.2 494.1" stroke="#272130" stroke-width="4" stroke-miterlimit="10" stroke-linecap="round" stroke-linejoin="round"/>
<path d="M514.7 317.7C514.7 317.7 530 331.1 554 322.7C578 314.3 638.7 250.3 683.3 261.7C683.3 261.7 660 282.4 665.3 311C670.6 339.7 651.3 362.3 651.3 362.3C651.3 362.3 667.3 373 651.3 389C635.3 405 609 400.7 612 422C615 443.3 630.7 444.3 634 463C637.3 481.7 630 523.7 650 533C650 533 628.7 572.3 568 458.3C540 405.2 532.7 397 514.7 397C508.7 381 514.7 317.7 514.7 317.7Z" stroke="#272130" stroke-width="6" stroke-miterlimit="10" stroke-linecap="round" stroke-linejoin="round"/>
<path d="M304.8 193.1C295.5 193.1 286.3 193.5 277.3 194.3L278.5 194.5C277.3 194.5 276.1 194.5 274.9 194.5C265.7 195.4 256.7 196.6 248 198.3V514C266.2 517.4 285.2 519.2 304.8 519.2C430.2 519.2 531.8 446.2 531.8 356.2C531.8 266.2 430.2 193.1 304.8 193.1Z" fill="#4DC1C4"/>
<path d="M379.8 202.2C452 229.5 501.3 283.9 501.3 346.5C501.3 436.5 392.3 513.7 266.9 513.7C258 513.7 263.3 515.8 254.7 515.1L248 513.9C266.2 517.3 285.2 519.1 304.8 519.1C430.2 519.1 531.8 446.1 531.8 356.1C531.8 284.9 468.3 224.4 379.8 202.2Z" fill="#23AFAB"/>
<path d="M304.8 193.1C295.5 193.1 286.3 193.5 277.3 194.3L278.5 194.5C277.3 194.5 276.1 194.5 274.9 194.5C265.7 195.4 256.7 196.6 248 198.3V514C266.2 517.4 285.2 519.2 304.8 519.2C430.2 519.2 531.8 446.2 531.8 356.2C531.8 266.2 430.2 193.1 304.8 193.1Z" stroke="#204751" stroke-width="6" stroke-miterlimit="10" stroke-linecap="round" stroke-linejoin="round"/>
<path d="M275.4 194.5C261.3 195.8 247.8 198 234.7 201C176.9 218.8 129.8 276.3 129.8 338L101.4 335C88.9 333.7 77.9 343.3 77.9 355.9C77.9 356 77.9 356.1 77.9 356.1C77.9 438.9 164 507.4 275.4 517.7C307.4 473.6 326.6 417.3 326.6 356.1C326.6 294.8 307.4 238.6 275.4 194.5Z" fill="#4DC1C4"/>
<path d="M148.3 314.9C148.3 314.9 189.2 332.1 225.2 332.1C261.2 332.1 272.6 329.4 276.9 315.5C276.9 315.5 279 324.8 275.3 332.1C271.6 339.4 257 361.8 181.5 346.4C106.1 335.5 133.9 338.4 133.9 338.4C133.9 338.4 132.2 309 148.3 314.9Z" fill="#23AFAB"/>
<path d="M168.6 346.5C168.6 346.5 202.6 363 237.2 363C257.4 363 273.9 355.8 280.7 351.4C301.2 338 287.3 307.3 280.7 317.7C277 323.5 271.4 339.1 267.7 342.9C264 346.7 211.8 351.4 205.2 351.4C198.6 351.4 168.6 346.5 168.6 346.5Z" fill="#23AFAB"/>
<path d="M149.8 338C149.8 276.4 196.9 218.9 254.7 201C262 199.3 269.4 197.9 276.9 196.7C276.4 195.9 275.8 195.2 275.3 194.4C275.3 194.4 275.3 194.4 275.2 194.4C261.2 195.7 247.6 197.9 234.5 201C177.4 218.6 130.6 275 129.6 335.8L149.8 338Z" fill="#23AFAB"/>
<path d="M97.9 356.1C97.9 356 97.9 355.9 97.9 355.9C97.9 346.7 103.9 339.1 111.9 336.2L101.3 335.1C88.8 333.8 77.8 343.4 77.8 356C77.8 356.1 77.8 356.2 77.8 356.2C77.8 439 163.9 507.5 275.3 517.8C275.8 517 276.4 516.3 276.9 515.5C174.7 499.6 97.9 434.3 97.9 356.1Z" fill="#23AFAB"/>
<path d="M275.4 194.5C261.3 195.8 247.8 198 234.7 201C176.9 218.8 129.8 276.3 129.8 338L101.4 335C88.9 333.7 77.9 343.3 77.9 355.9C77.9 356 77.9 356.1 77.9 356.1C77.9 438.9 164 507.4 275.4 517.7C307.4 473.6 326.6 417.3 326.6 356.1C326.6 294.8 307.4 238.6 275.4 194.5Z" stroke="#204751" stroke-width="6" stroke-miterlimit="10" stroke-linecap="round" stroke-linejoin="round"/>
<path d="M208.7 349.3C202.4 348.7 196.6 348 191.4 347.3C191.1 345.6 191 343.9 191 342.2C191 329.5 198.3 318.7 208.3 315C205.3 319.7 203.5 325.6 203.5 331.9C203.5 338.4 205.4 344.5 208.7 349.3Z" fill="white" stroke="white" stroke-width="4" stroke-miterlimit="10" stroke-linecap="round" stroke-linejoin="round"/>
<path d="M143.5 341.1C135 340 127.1 338.9 120.1 337.8C119.8 335.5 119.7 333.2 119.7 330.8C120.2 313.5 130.4 299.1 144.2 294.3C139.9 300.6 137.2 308.5 137 317.2C136.8 326.1 139.2 334.4 143.5 341.1Z" fill="white" stroke="white" stroke-width="4" stroke-miterlimit="10" stroke-linecap="round" stroke-linejoin="round"/>
<path d="M291 327.7C291 318.4 265 307.7 265 307.7" stroke="#204751" stroke-width="6" stroke-miterlimit="10" stroke-linecap="round" stroke-linejoin="round"/>
<path d="M205.2 279.7C227.291 279.7 245.2 260.896 245.2 237.7C245.2 214.504 227.291 195.7 205.2 195.7C183.109 195.7 165.2 214.504 165.2 237.7C165.2 260.896 183.109 279.7 205.2 279.7Z" fill="white"/>
<path d="M205.2 279.7C227.291 279.7 245.2 260.896 245.2 237.7C245.2 214.504 227.291 195.7 205.2 195.7C183.109 195.7 165.2 214.504 165.2 237.7C165.2 260.896 183.109 279.7 205.2 279.7Z" stroke="#204751" stroke-width="6" stroke-miterlimit="10" stroke-linecap="round" stroke-linejoin="round"/>
<path d="M202 266C210.837 266 218 258.613 218 249.5C218 240.387 210.837 233 202 233C193.163 233 186 240.387 186 249.5C186 258.613 193.163 266 202 266Z" fill="#1E1826"/>
<path d="M198.1 251.3C202.021 251.3 205.2 248.032 205.2 244C205.2 239.968 202.021 236.7 198.1 236.7C194.179 236.7 191 239.968 191 244C191 248.032 194.179 251.3 198.1 251.3Z" fill="white"/>
<path d="M206.1 261C207.536 261 208.7 259.791 208.7 258.3C208.7 256.809 207.536 255.6 206.1 255.6C204.664 255.6 203.5 256.809 203.5 258.3C203.5 259.791 204.664 261 206.1 261Z" fill="white"/>
<path d="M180.6 294.5C180.9 294.2 181.2 293.9 181.5 293.6C177.3 295.6 173.2 298.3 169.7 301.5C156.4 313.6 152.5 330.5 158.5 344.1L176.1 346.5C165.3 330.3 166.5 309.2 180.6 294.5Z" fill="white" stroke="white" stroke-width="4" stroke-miterlimit="10" stroke-linecap="round" stroke-linejoin="round"/>
<path d="M233.7 328.2C233.8 328.1 233.9 327.9 234.1 327.8C232.3 328.9 230.6 330.2 229.2 331.8C224.1 337.6 224.1 344.9 228.4 350.4L237.2 350.5C230.3 344.1 228.5 335.2 233.7 328.2Z" fill="white" stroke="white" stroke-width="4" stroke-miterlimit="10" stroke-linecap="round" stroke-linejoin="round"/>
<path d="M378 370.3C378 370.3 332.8 410 345.3 449.6C345.3 449.6 352 468.9 374 472.3C395.3 475.5 399.7 465.3 404.7 460.3C384.5 452.2 393.5 426 398 421.4C388.7 421.4 378 413.5 374.2 405C370.5 396.5 372.6 388.4 378 370.3Z" fill="#372E42"/>
<path opacity="0.83" d="M345.3 449.7C345.3 449.7 351.7 468.2 372.7 472.1C362.5 447.8 358.2 417.3 356.4 396C346.9 410.8 339.2 430.2 345.3 449.7Z" fill="#2D2638"/>
<path d="M378 370.3C378 370.3 332.8 410 345.3 449.6C345.3 449.6 352 468.9 374 472.3C395.3 475.5 399.7 465.3 404.7 460.3C384.5 452.2 393.5 426 398 421.4C388.7 421.4 378 413.5 374.2 405C370.5 396.5 372.6 388.4 378 370.3Z" stroke="#272130" stroke-width="6" stroke-miterlimit="10" stroke-linecap="round" stroke-linejoin="round"/>
<path d="M280.7 317.7C280.7 317.7 281.9 355.3 228 351.1C167.1 346.3 110.8 336 110.8 336" stroke="#204751" stroke-width="6" stroke-miterlimit="10" stroke-linecap="round" stroke-linejoin="round"/>
<path opacity="0.78" d="M198.8 468.8C211.834 468.8 222.4 458.234 222.4 445.2C222.4 432.166 211.834 421.6 198.8 421.6C185.766 421.6 175.2 432.166 175.2 445.2C175.2 458.234 185.766 468.8 198.8 468.8Z" fill="#6D87AC"/>
<path opacity="0.78" d="M257.6 264.6C261.687 264.6 265 261.287 265 257.2C265 253.113 261.687 249.8 257.6 249.8C253.513 249.8 250.2 253.113 250.2 257.2C250.2 261.287 253.513 264.6 257.6 264.6Z" fill="#6D87AC"/>
<path opacity="0.78" d="M276.2 240.4C282.33 240.4 287.3 235.43 287.3 229.3C287.3 223.17 282.33 218.2 276.2 218.2C270.07 218.2 265.1 223.17 265.1 229.3C265.1 235.43 270.07 240.4 276.2 240.4Z" fill="#6D87AC"/>
<path opacity="0.78" d="M267.7 374.2C270.793 374.2 273.3 371.693 273.3 368.6C273.3 365.507 270.793 363 267.7 363C264.607 363 262.1 365.507 262.1 368.6C262.1 371.693 264.607 374.2 267.7 374.2Z" fill="#6D87AC"/>
<path opacity="0.39" d="M277 277.5C279.043 277.5 280.7 275.843 280.7 273.8C280.7 271.757 279.043 270.1 277 270.1C274.957 270.1 273.3 271.757 273.3 273.8C273.3 275.843 274.957 277.5 277 277.5Z" fill="#6D87AC"/>
<path opacity="0.78" d="M373.9 284.6C386.934 284.6 397.5 274.034 397.5 261C397.5 247.966 386.934 237.4 373.9 237.4C360.866 237.4 350.3 247.966 350.3 261C350.3 274.034 360.866 284.6 373.9 284.6Z" fill="#6D87AC"/>
<path opacity="0.39" d="M446.9 328.8C463.137 328.8 476.3 315.637 476.3 299.4C476.3 283.163 463.137 270 446.9 270C430.663 270 417.5 283.163 417.5 299.4C417.5 315.637 430.663 328.8 446.9 328.8Z" fill="#6D87AC"/>
<path opacity="0.78" d="M500 362.4C506.627 362.4 512 357.027 512 350.4C512 343.773 506.627 338.4 500 338.4C493.373 338.4 488 343.773 488 350.4C488 357.027 493.373 362.4 500 362.4Z" fill="#6D87AC"/>
<path opacity="0.78" d="M250.3 475.6C255.16 475.6 259.1 471.66 259.1 466.8C259.1 461.94 255.16 458 250.3 458C245.44 458 241.5 461.94 241.5 466.8C241.5 471.66 245.44 475.6 250.3 475.6Z" fill="#6D87AC"/>
<path d="M355 427.7C355 427.7 365 421.4 369.3 417" stroke="#272130" stroke-width="4" stroke-miterlimit="10" stroke-linecap="round" stroke-linejoin="round"/>
<path d="M355 440.3C355 440.3 375 436 380 431" stroke="#272130" stroke-width="4" stroke-miterlimit="10" stroke-linecap="round" stroke-linejoin="round"/>
<path d="M359.3 449.7C359.3 449.7 372.6 455 382.6 458" stroke="#272130" stroke-width="4" stroke-miterlimit="10" stroke-linecap="round" stroke-linejoin="round"/>
<path d="M237.2 517.7C237.2 517.7 243.1 533 250.2 536.3" stroke="#272130" stroke-width="4" stroke-miterlimit="10" stroke-linecap="round" stroke-linejoin="round"/>
</svg>
