<svg width="4267" height="2667" viewBox="0 0 4267 2667" fill="none" xmlns="http://www.w3.org/2000/svg">
<path d="M496.335 2424.81C496.335 2424.81 99.774 2313.03 281.615 1801.09C463.455 1289.16 809.361 1510.01 709.411 1062.29C577.607 471.92 1135.74 70.4401 1749.33 233.96C2362.93 397.48 2198.48 579.227 2919.56 396.187C3798.63 173.054 3872.77 1101.4 3668.89 1409.76C3465.01 1718.13 4225.43 1762.59 3911.35 2424.81H496.335" fill="#EBF3FA"/>
<path d="M3268.33 1263.45C3268.33 1263.45 3369.93 1056.28 3426.76 1074.67C3483.59 1093.05 3268.33 1263.45 3268.33 1263.45Z" fill="#CDE0FB"/>
<path d="M3195.25 1357.17C3195.25 1357.17 3438.65 1118.6 3533.24 1162.11C3627.81 1205.61 3475.59 1252.28 3417.52 1264.99C3359.45 1277.69 3195.25 1357.17 3195.25 1357.17Z" fill="#CDE0FB"/>
<path d="M3805.23 2256.48C3892.17 2199.36 3809.59 2048.11 3809.59 2048.11C3809.59 2048.11 3606.76 1993.51 3592.36 1963.01C3577.96 1932.51 3774.88 1975.83 3774.88 1975.83C3760.64 1912.25 3633.63 1779.97 3633.63 1779.97C3633.63 1779.97 3442.07 1853.76 3435.63 1820.65C3429.17 1787.55 3608.57 1763.96 3608.57 1763.96C3571.13 1710.2 3483.31 1677.33 3483.31 1677.33C3347.19 1644.91 3312.57 1821.36 3312.57 1821.36C3312.57 1821.36 3245.64 1845.51 3154.43 1829.17C3154.43 1829.17 3137.03 1824.44 3109.55 1822.84L3114.88 1839.11C3119.68 1839 3124.37 1839.08 3128.95 1839.37L3129.03 1839.39L3129.23 1839.4C3132.11 1839.69 3136.2 1840.12 3141.21 1840.68L3141.23 1840.69H3141.25C3152.61 1842.47 3160.89 1843.47 3166.77 1843.89H3166.83C3202.23 1848.77 3249.03 1857.17 3262.05 1868.75C3262.05 1868.75 3264 1866.12 3268.37 1862.81C3266.36 1864.71 3264.27 1866.68 3262.05 1868.75C3211.55 1916.12 3247.21 2058.53 3288.53 2130.84C3329.85 2203.16 3340.64 2162.2 3362.44 2108.83C3384.25 2055.44 3346.23 1971.04 3351.67 1940.64C3357.11 1910.24 3383.41 1943.44 3396.37 1996.43C3409.35 2049.41 3366.13 2092.2 3385.55 2178.31C3404.96 2264.4 3582.85 2276.53 3582.85 2276.53C3546.07 2224.75 3543.99 2110.95 3562.56 2100.47C3581.13 2089.97 3629.32 2243.69 3643.11 2265.59C3656.89 2287.49 3718.28 2313.6 3805.23 2256.48" fill="#CDE0FB"/>
<path d="M1059.26 1495.51C1059.26 1495.51 931.111 1234.21 859.436 1257.4C787.759 1280.6 1059.26 1495.51 1059.26 1495.51Z" fill="#DFEBFD"/>
<path d="M1151.43 1613.73C1151.43 1613.73 844.439 1312.83 725.145 1367.69C605.851 1422.57 797.861 1481.41 871.097 1497.44C944.333 1513.47 1151.43 1613.73 1151.43 1613.73Z" fill="#DFEBFD"/>
<path d="M572.635 1786.48C574.212 1695.05 725.379 1685.35 725.379 1685.35C725.379 1685.35 861.239 1810.36 890.665 1806.72C920.091 1803.09 795.379 1677.16 795.379 1677.16C849.3 1657.85 1007.25 1690.05 1007.25 1690.05C1007.25 1690.05 1042.43 1867.04 1070.06 1856.27C1097.69 1845.51 1030.91 1701.16 1030.91 1701.16C1088.45 1703.71 1154.12 1753.51 1154.12 1753.51C1242.17 1839.39 1127.35 1948.01 1127.35 1948.01C1127.35 1948.01 1140.87 2009.08 1195.86 2069.16H1195.86C1195.86 2069.16 1207.55 2079.87 1221.65 2099.52L1207.07 2103.2C1204.89 2099.6 1202.62 2096.15 1200.25 2092.88L1200.21 2092.83L1200.1 2092.68C1198.54 2090.68 1196.29 2087.84 1193.52 2084.39L1193.51 2084.37L1193.49 2084.36C1186.84 2076.76 1182.2 2071.08 1179.12 2066.91L1179.1 2066.87C1158.84 2042.85 981.876 2108 908.743 2111.28C835.609 2114.57 860.969 2087.31 890.376 2046.03C919.784 2004.75 1000.35 1993.35 1020.38 1975.01C1040.41 1956.68 1003.38 1952.75 957.924 1968.01C912.469 1983.28 900.991 2035.49 827.908 2061.52C754.825 2087.55 662.223 1961.09 662.223 1961.09C717.977 1964.09 803.489 1912.17 802.556 1893.44C801.621 1874.71 664.787 1911.15 642.041 1911.2C619.297 1911.24 571.056 1877.91 572.635 1786.48" fill="#CDE0FB"/>
<path d="M2109.59 2418.23H1030.11C1006.66 2418.23 987.648 2399.17 987.648 2375.65V933.48C987.648 909.333 1007.64 890.013 1031.7 890.92L2152.04 942.587V2375.65C2152.04 2399.17 2133.03 2418.23 2109.59 2418.23" fill="#F99746"/>
<path d="M2194.51 2418.23H3273.97C3297.43 2418.23 3316.44 2399.17 3316.44 2375.65V933.467C3316.44 909.333 3296.44 890.013 3272.39 890.92L2152.04 942.587V2375.65C2152.04 2399.17 2171.05 2418.23 2194.51 2418.23" fill="#F99746"/>
<path d="M1069.39 953.48L1034.39 981.92C1029.44 985.933 1026.56 992.04 1026.56 998.507V2396.67C1026.56 2408.37 1035.83 2417.85 1047.26 2417.85H1134.41C1146.33 2417.85 1155.79 2407.57 1155.07 2395.39L1069.39 953.48" fill="#AEC3FF"/>
<path d="M3236.83 953.48L3271.83 981.92C3276.77 985.933 3279.67 992.04 3279.67 998.507V2396.67C3279.67 2408.37 3270.39 2417.85 3258.96 2417.85H3171.81C3159.89 2417.85 3150.43 2407.57 3151.15 2395.39L3236.83 953.48Z" fill="#AEC3FF"/>
<path d="M2112.09 2418.23H1096.45C1074.38 2418.23 1056.49 2399.81 1056.49 2377.09V983.733C1056.49 960.413 1075.31 941.747 1097.94 942.627L1984.47 976.88C2078.01 980.493 2152.04 1059.64 2152.04 1156.03V2377.09C2152.04 2399.81 2134.16 2418.23 2112.09 2418.23" fill="#FFF7F0"/>
<path d="M2188.71 2418.23H3210.92C3231.17 2418.23 3247.59 2401.33 3247.59 2380.48V980.213C3247.59 958.813 3230.32 941.693 3209.55 942.493L2300.8 977.613C2217.76 980.813 2152.04 1051.08 2152.04 1136.64V2380.48C2152.04 2401.33 2168.45 2418.23 2188.71 2418.23" fill="#FFF7F0"/>
<path d="M2154.8 2124.67H2149.29V1219.93H2154.8V2124.67Z" fill="#F9DEC7"/>
<path d="M2683.59 1129.61C2685.63 1131.97 2685.88 1134.61 2684.84 1137.41L2684.81 1137.45C2682.89 1142.64 2676.65 1148.39 2669.39 1154.13C2668.47 1154.88 2667.64 1155.55 2666.92 1156.16C2666.73 1156.33 2666.55 1156.49 2666.36 1156.65C2666.21 1156.79 2666.08 1156.92 2665.93 1157.04C2659.17 1163.19 2661.69 1164.63 2649.51 1177.13C2635.63 1191.37 2626.13 1191.56 2623.44 1190.24C2621.17 1189.11 2625.87 1181.53 2631.07 1173.03C2631.32 1172.61 2631.56 1172.2 2631.83 1171.79C2632.52 1170.65 2633.2 1169.51 2633.89 1168.36C2639.99 1158.12 2638.48 1153.28 2637.16 1137.96C2636.08 1125.51 2618.29 1068.31 2618.29 1068.31L2644.73 1063.95C2644.73 1063.95 2652.37 1109.45 2661.08 1116.51C2665.75 1120.27 2670.99 1120.36 2675.48 1123.15C2675.79 1123.35 2676.11 1123.55 2676.4 1123.75C2678.96 1125.47 2681.55 1127.24 2683.59 1129.61Z" fill="#FFB27D"/>
<path d="M2683.59 1129.61C2685.63 1131.97 2685.88 1134.61 2684.84 1137.41L2684.81 1137.45C2682.48 1142.63 2676.39 1148.36 2669.37 1154.08C2668.45 1154.83 2667.64 1155.52 2666.92 1156.16C2666.73 1156.33 2666.55 1156.49 2666.36 1156.65C2666.21 1156.79 2666.08 1156.92 2665.93 1157.04C2659.17 1163.19 2661.69 1164.63 2649.51 1177.13C2635.63 1191.37 2626.13 1191.56 2623.44 1190.24C2621.17 1189.11 2625.87 1181.53 2631.07 1173.03C2633.76 1172.07 2646.25 1167.08 2655.76 1155.09C2664.13 1144.56 2669.77 1131 2675.48 1123.15C2675.79 1123.35 2676.11 1123.55 2676.4 1123.75C2678.96 1125.47 2681.55 1127.24 2683.59 1129.61" fill="#233862"/>
<path d="M2470.73 1111.61C2469.04 1119.75 2457.43 1118.31 2444.47 1115.04C2431.51 1111.79 2434.56 1115.57 2416.11 1113.4C2397.64 1111.23 2392.09 1104.29 2391.55 1101.55C2391.05 1099.09 2400.19 1098.31 2410 1097.24C2411.23 1097.12 2412.47 1096.97 2413.71 1096.83C2424.77 1095.52 2432.92 1088.44 2443 1082.65C2452.56 1077.17 2466.92 1054.65 2466.92 1054.65L2492.24 1056.84C2492.24 1056.84 2478.8 1076.95 2473.6 1085.69C2470.53 1090.84 2470.64 1097.67 2470.99 1102.95C2471.16 1105.81 2471.33 1108.75 2470.73 1111.61" fill="#FFB27D"/>
<path d="M2444.47 1115.04C2431.51 1111.79 2434.56 1115.57 2416.11 1113.4C2397.64 1111.23 2392.09 1104.29 2391.55 1101.55C2391.05 1099.09 2400.19 1098.31 2410 1097.24L2410.08 1097.44C2410.08 1097.44 2421.11 1105.37 2436.49 1105.84C2449.03 1106.24 2462.33 1102.75 2470.99 1102.95C2471.16 1105.81 2471.33 1108.75 2470.73 1111.61C2469.04 1119.75 2457.43 1118.31 2444.47 1115.04" fill="#233862"/>
<path d="M2654.96 1088.61C2654.96 1088.61 2653.2 1089.76 2650.56 1091.21C2647.43 1092.95 2643.05 1095.11 2639.01 1096.24C2634.71 1097.45 2630.29 1097.76 2627.13 1097.79C2624.39 1097.81 2622.57 1097.63 2622.57 1097.63L2592.23 1014.16L2586.75 999.08L2580.91 983.013L2578.88 977.427L2569 950.254C2569 950.254 2593.15 888.32 2617.77 917.84C2620.77 921.44 2623.59 926.68 2626.21 933.093C2628.01 937.48 2629.72 942.413 2631.35 947.76C2632.56 951.773 2633.75 956.027 2634.88 960.44C2637.95 972.467 2640.67 985.747 2643.04 999.08C2650.96 1043.59 2654.96 1088.61 2654.96 1088.61" fill="#233862"/>
<path d="M2818.04 957.2L2694.99 962.373C2668.03 956.8 2645.28 942.533 2629.81 934.88C2628.53 934.24 2627.33 933.64 2626.21 933.093C2620.93 930.48 2617.31 928.693 2615.81 928.373C2606.45 926.427 2601.64 941.68 2593.71 960.44C2592.08 964.267 2590.35 968.213 2588.41 972.213C2587.03 975.067 2584.43 978.747 2580.91 983.013C2580.25 983.8 2579.59 984.613 2578.88 985.427C2551.64 1017.24 2481.53 1076.47 2481.53 1076.47C2481.53 1076.47 2480.71 1076.47 2479.37 1076.44C2475.09 1076.36 2465.53 1075.96 2460.96 1074.21C2458.32 1073.2 2456.37 1072.08 2454.99 1071.11C2452.97 1069.68 2452.15 1068.56 2452.15 1068.56C2452.15 1068.56 2536.04 904.533 2579.48 859.853V859.84C2580.11 859.187 2580.72 858.573 2581.35 857.973C2586.08 853.347 2590.29 850.28 2593.8 849.187C2608.6 844.52 2704.33 849.72 2704.33 849.72L2707.39 844.747L2712.51 844.387L2713.39 844.333L2717.64 844.013H2717.65L2723.55 843.6L2732.29 842.987L2755.95 841.307L2759.75 841.027L2803.49 837.92C2803.49 837.92 2805.48 842.427 2808.19 849.88C2809.24 852.8 2810.39 856.147 2811.57 859.867C2819.39 884.293 2829.49 928.227 2818.04 957.2" fill="#2B478B"/>
<path d="M2846.03 674.867C2824.17 656.214 2808.57 651.587 2806.4 622.04C2805.23 606.014 2783.69 552.96 2747.28 557.6C2744.23 557.987 2741.16 558.254 2738.09 558.134C2733.84 557.974 2726.81 558.534 2719.59 562.774C2702.05 573.04 2669.76 667.974 2691.53 701.32C2695.44 707.307 2701.08 711.32 2708.89 712.48C2709.81 713 2710.73 713.534 2711.69 714.067H2711.71C2715.63 716.267 2719.93 718.68 2724.48 721.267C2750.21 735.774 2783.91 754.96 2801.17 764.654C2802.23 765.24 2803.2 765.8 2804.12 766.32C2806.12 767.44 2807.81 768.374 2809.15 769.107C2811.16 770.214 2812.35 770.827 2812.44 770.827C2812.44 770.827 2816.88 772.547 2823.11 773.84C2831.79 775.64 2843.95 776.654 2852.41 771.12C2855.76 768.934 2858.89 766.227 2861.68 763.094C2879.2 743.494 2883.81 707.107 2846.03 674.867" fill="#233862"/>
<path d="M2737.68 696.654C2737.52 696.747 2754.47 702.667 2765.85 697.72C2776.56 693.08 2784.77 675.56 2784.61 675.547C2779.76 675.293 2774.45 671 2770.55 643.107L2768.47 643.827L2733.6 656.107C2733.6 656.107 2736.04 667.28 2737.6 677.92C2738.91 686.854 2739.59 695.414 2737.68 696.654" fill="#FFB27D"/>
<path d="M2733.6 656.107C2733.6 656.107 2735.08 663.933 2737.15 675.133C2757.16 671.68 2765.59 654.613 2768.47 643.827L2733.6 656.107" fill="#ED975D"/>
<path d="M2728.35 667.147C2728.35 667.147 2775.97 661.093 2771.75 631.48C2767.53 601.88 2770.83 581.16 2740.24 583.76C2709.64 586.373 2705.36 598.52 2704.36 608.747C2703.37 618.973 2715.84 667.96 2728.35 667.147" fill="#FFB27D"/>
<path d="M2706.21 592.547C2706.21 592.547 2736.49 619.013 2757.2 621.28C2777.91 623.547 2785.8 616.947 2785.8 616.947C2785.8 616.947 2773.67 606.72 2766.43 590.294C2764.29 585.454 2759.73 582.107 2754.47 581.627C2739.68 580.24 2711.64 579.453 2706.21 592.547Z" fill="#233862"/>
<path d="M2725.28 590.333C2725.28 590.333 2715.01 600.107 2711.75 607.4C2708.6 614.427 2707.56 631.293 2709.97 638.013C2709.97 638.013 2694.31 607.013 2703.41 592.08C2713.05 576.24 2725.28 590.333 2725.28 590.333Z" fill="#233862"/>
<path d="M2697.11 766.48C2697.87 862.827 2696.96 842.693 2707.44 851.907C2709.96 854.12 2717.09 855.493 2726.48 856.173C2756 858.347 2807.97 853.84 2809.99 848.4C2816.93 829.56 2812.16 823.653 2818.05 794.773C2818.67 791.707 2819.43 788.374 2820.31 784.76C2825.19 764.934 2829.85 758.2 2813.25 726.173C2798.21 697.16 2782.53 673.587 2781.11 674.427C2740.71 698.027 2737.6 677.934 2737.6 677.934C2737.6 677.934 2696.73 719.48 2697.11 766.48Z" fill="#AEC3FF"/>
<path d="M2654.96 1088.61C2654.96 1088.61 2653.2 1089.76 2650.56 1091.21C2647.43 1092.95 2643.05 1095.11 2639.01 1096.24C2634.71 1097.45 2630.29 1097.76 2627.13 1097.79C2624.39 1097.81 2622.57 1097.63 2622.57 1097.63L2592.23 1014.16L2601.12 999.08L2623.88 960.44L2631.35 947.76C2632.56 951.773 2633.75 956.027 2634.88 960.44C2637.95 972.467 2640.67 985.747 2643.04 999.08C2650.96 1043.59 2654.96 1088.61 2654.96 1088.61" fill="#2B478B"/>
<path d="M2737.6 677.92C2737.6 677.92 2696.15 684.654 2691.16 702.44C2686.17 720.227 2656.83 824.814 2656.83 824.814C2656.83 824.814 2677.84 828.747 2687.64 819.094C2697.43 809.44 2722.11 729.12 2722.11 729.12L2737.6 677.92Z" fill="#AEC3FF"/>
<path d="M2726.48 856.173C2756 858.347 2807.97 853.84 2809.99 848.4C2816.93 829.56 2812.16 823.653 2818.05 794.773L2804.08 754.547C2804.08 754.547 2806.12 799.253 2792.87 810.907C2779.63 822.56 2738.76 833.214 2732.28 842.987C2729.16 847.68 2727.09 852.387 2726.48 856.173Z" fill="#95B3EF"/>
<path d="M2760.45 837.627C2760.45 837.627 2731.36 830.934 2726.64 833.48C2721.92 836.04 2710.36 845.374 2708.89 848.64C2707.44 851.907 2719.39 846.227 2723.27 845.214C2725.77 844.56 2732.36 846.907 2735.63 848.014C2749.35 852.694 2757.79 850.4 2757.79 850.4L2760.45 837.627" fill="#FFB27D"/>
<path d="M2781.13 674.4C2781.13 674.4 2820.24 677.093 2833.65 696.08C2852.53 722.813 2889.57 836.427 2867.79 851.4C2843.24 868.253 2756.63 855.067 2756.63 855.067C2756.63 855.067 2753.84 841.56 2757.89 835.067C2761.96 828.573 2827.28 818.493 2830.31 815.493C2833.33 812.507 2793.08 756.52 2793.15 747.48C2793.21 738.453 2781.13 674.4 2781.13 674.4Z" fill="#AEC3FF"/>
<path d="M2725.17 841.587C2725.17 841.587 2719.01 849.413 2717 850.347C2714.99 851.267 2713.69 851.027 2713.69 851.027L2717.87 843.654L2725.17 841.587" fill="#FFB27D"/>
<path d="M2726.64 833.48L2708.83 841.973C2708.83 841.973 2709.57 843.213 2711.76 843.133C2713.95 843.053 2719.47 841.08 2719.47 841.08L2726.64 833.48" fill="#FFB27D"/>
<path d="M2720.8 858.667L2580.36 857.667L2538.85 752.32L2679.08 753.307L2720.8 858.667" fill="#F99746"/>
<path d="M2578.73 853.573L2764.2 854.88L2764.16 858.973L2580.36 857.667L2578.73 853.573Z" fill="#ED7D2B"/>
<path d="M2616.17 805.387C2615.15 801.693 2617.31 798.72 2621 798.747C2624.69 798.76 2628.52 801.787 2629.56 805.493C2630.59 809.187 2628.43 812.16 2624.73 812.147C2621.04 812.12 2617.21 809.093 2616.17 805.387Z" fill="white"/>
<path d="M1201.25 2417.31H1950.91C2003.05 2417.31 2045.32 2375.03 2045.32 2322.89V2318.95C2045.32 2266.81 2003.05 2224.53 1950.91 2224.53H1201.25C1149.1 2224.53 1106.83 2266.81 1106.83 2318.95V2322.89C1106.83 2375.03 1149.1 2417.31 1201.25 2417.31" fill="#2B478B"/>
<path d="M1626.11 2295.28L1625.44 2337.4C1624.84 2374.67 1654.57 2405.37 1691.84 2405.96L2190.08 2413.92L2190.23 2405.53C2162.27 2390.99 2143.4 2361.56 2143.93 2327.92L2144.17 2313.09C2144.71 2279.45 2164.51 2250.64 2192.91 2237L2192.92 2236.83L1694.67 2228.87C1657.4 2228.28 1626.71 2258.01 1626.11 2295.28" fill="#F9DEC7"/>
<path d="M2203.13 2417.31H1678.23C1644.37 2417.31 1617.85 2374.93 1617.85 2320.85C1617.85 2266.77 1644.37 2224.41 1678.23 2224.41H2203.13C2207.49 2224.41 2211.03 2227.95 2211.03 2232.31C2211.03 2236.67 2207.49 2240.2 2203.13 2240.2H1678.23C1654.05 2240.2 1633.63 2277.13 1633.63 2320.85C1633.63 2364.57 1654.05 2401.52 1678.23 2401.52H2203.13C2207.49 2401.52 2211.03 2405.05 2211.03 2409.41C2211.03 2413.77 2207.49 2417.31 2203.13 2417.31" fill="#1B3770"/>
<path d="M2153.05 2277.01H1701.65V2275.76H2153.05V2277.01Z" fill="#E8C2A3"/>
<path d="M2146.64 2294.51H1975.28V2293.37H2146.64V2294.51Z" fill="#E8C2A3"/>
<path d="M2146.64 2354.37H1847.69V2353.23H2146.64V2354.37Z" fill="#E8C2A3"/>
<path d="M1757.71 2276.39C1757.71 2276.39 1780.87 2286.08 1783.63 2318.8C1786.37 2351.51 1783.63 2368.95 1783.63 2368.95L1755.67 2355.64L1727.44 2368.95V2317.8C1727.44 2317.8 1726.4 2276.39 1687.88 2276.39H1757.71" fill="#F78248"/>
<path d="M1141.15 2224.53H1717.93C1752.07 2224.53 1779.73 2196.87 1779.73 2162.73V2141.24C1779.73 2107.11 1752.07 2079.44 1717.93 2079.44H1141.15C1107.01 2079.44 1079.34 2107.11 1079.34 2141.24V2162.73C1079.34 2196.87 1107.01 2224.53 1141.15 2224.53Z" fill="#699DEE"/>
<path d="M1466.88 2132.61L1466.37 2164.28C1465.93 2192.28 1488.12 2215.36 1515.93 2215.81L1887.77 2221.79L1887.88 2215.48C1867.01 2204.56 1852.93 2182.43 1853.33 2157.15L1853.51 2146C1853.91 2120.72 1868.69 2099.05 1889.88 2088.8L1889.89 2088.68L1518.05 2082.69C1490.24 2082.25 1467.32 2104.6 1466.88 2132.61" fill="#F9DEC7"/>
<path d="M1897.51 2224.33H1505.77C1480.51 2224.33 1460.71 2192.49 1460.71 2151.84C1460.71 2111.19 1480.51 2079.33 1505.77 2079.33H1897.51C1900.76 2079.33 1903.4 2082 1903.4 2085.27C1903.4 2088.55 1900.76 2091.2 1897.51 2091.2H1505.77C1487.73 2091.2 1472.49 2118.97 1472.49 2151.84C1472.49 2184.71 1487.73 2212.47 1505.77 2212.47H1897.51C1900.76 2212.47 1903.4 2215.12 1903.4 2218.4C1903.4 2221.68 1900.76 2224.33 1897.51 2224.33Z" fill="#4B87DD"/>
<path d="M1860.13 2118.84H1577.28V2117.99H1860.13V2118.84Z" fill="#E8C2A3"/>
<path d="M1855.35 2132.03H1727.47V2131.17H1855.35V2132.03Z" fill="#E8C2A3"/>
<path d="M1855.35 2177.03H1632.25V2176.17H1855.35V2177.03Z" fill="#E8C2A3"/>
<path d="M3118 1959.13C3118 1959.13 3125.21 1981.32 3124.59 1986.4C3123.97 1991.48 3119.44 2008.83 3116.21 2013.27C3112.99 2017.71 3111.39 1995.17 3108.83 1991.79C3106.27 1988.4 3108.31 2000.27 3106.51 2001.37C3104.69 2002.47 3100.93 1992.64 3099.32 1989.17C3097.71 1985.71 3103.28 1972.92 3103.29 1964C3103.31 1955.09 3118 1959.13 3118 1959.13" fill="#FFB27D"/>
<path d="M2948.51 1782.81C2946.51 1757.36 2974.16 1739.92 2995.99 1753.16C2996.44 1753.43 2996.88 1753.71 2997.32 1753.99C3030 1775.03 3100.52 1873.19 3105.37 1883.01C3110.23 1892.85 3124.55 1971.08 3124.55 1971.08C3124.55 1971.08 3106.85 1977.56 3098.57 1970.84C3098.57 1970.84 3069.87 1896.64 3065.61 1892.93C3061.37 1889.23 2950.79 1827.17 2949.84 1803.92C2949.59 1797.76 2949.09 1790.37 2948.51 1782.81" fill="#233862"/>
<path d="M2802.75 1741.76L2812.36 1769.37L2673.47 1817.73L2663.85 1790.12L2802.75 1741.76Z" fill="#F99746"/>
<path d="M2636.36 1815.17L2673.47 1817.73L2663.85 1790.12L2636.36 1815.17Z" fill="#F9DDBF"/>
<path d="M2822.08 1745.29L2825.12 1754.03C2826.99 1759.4 2824.15 1765.27 2818.79 1767.13L2812.36 1769.37L2802.75 1741.76L2809.73 1739.33C2814.79 1737.56 2820.32 1740.24 2822.08 1745.29Z" fill="#F9DDBF"/>
<path d="M3145.85 2357.37C3145.85 2357.37 3159.03 2369.4 3156.45 2377.95C3153.88 2386.48 3141.99 2392.19 3140.39 2402.63C3138.77 2413.07 3132.35 2418.76 3126.56 2418.76C3120.77 2418.76 3098.99 2418.76 3098.99 2418.76C3098.99 2418.76 3094.72 2411.41 3105.01 2409.2C3115.29 2406.99 3119.17 2394.72 3118.53 2383.32C3117.88 2371.93 3119.49 2356.73 3119.49 2356.73L3141.35 2351.68L3145.85 2357.37" fill="#1F4075"/>
<path d="M2984.19 2388.48C2984.19 2388.48 2986.55 2415.84 2980.76 2418.69L2906.72 2418.53C2906.72 2418.53 2906.72 2410 2918.61 2408.09C2930.51 2406.2 2951.4 2399.24 2954.93 2383.73C2958.47 2368.23 2984.19 2388.48 2984.19 2388.48" fill="#1F4075"/>
<path d="M2921.68 2001.88C2921.68 2001.88 2925.59 2049.85 2930.17 2107.52C2936.41 2185.85 2943.91 2282.07 2944.65 2300.31C2945.93 2331.96 2951.08 2382.59 2951.08 2382.59C2951.08 2382.59 2963.29 2394.61 2987.72 2389.55C2987.72 2389.55 3009.49 2317.27 3015.72 2240.79C3015.81 2239.53 3015.91 2238.28 3016 2237.01C3021.79 2159.16 3030.79 1995.23 3030.79 1995.23L2921.68 2001.88Z" fill="#F99746"/>
<path d="M2921.68 2001.88C2921.68 2001.88 2925.59 2049.85 2930.17 2107.52L3015.72 2240.79C3015.81 2239.53 3015.91 2238.28 3016 2237.01C3021.79 2159.16 3030.79 1995.23 3030.79 1995.23L2921.68 2001.88Z" fill="#EF7E29"/>
<path d="M2939.51 2007.57C2939.51 2007.57 3009.89 2181.31 3056.17 2262.96C3102.45 2344.61 3116.92 2367.4 3116.92 2367.4C3116.92 2367.4 3143.44 2356.95 3145.85 2349.83C3145.85 2349.83 3128.15 2192.2 3097.16 2153.77C3079.64 2132.07 3059.07 2066.91 3058.11 2044.12C3057.15 2021.33 3051.84 1976.24 3051.84 1976.24L2939.51 2007.57" fill="#F99746"/>
<path d="M3000.2 1746.95C3000.2 1746.95 2953.04 1770.87 2925.43 1762.89C2925.43 1762.89 2932.01 1754.23 2943.71 1747.65C2942.65 1742.16 2941.81 1737.4 2941.31 1733.35C2939.96 1724.01 2939.87 1718.72 2939.87 1718.72L2957.95 1703.91L2975.09 1689.73C2974.49 1728.64 3000.2 1746.95 3000.2 1746.95" fill="#FFB27D"/>
<path d="M3047.04 1989.99C3028 2001.52 3009.97 2010.17 2988.88 2015.04C2964 2020.95 2933.41 2019.2 2923.19 2020.76C2922.13 2020.91 2921.13 2020.63 2920.2 2020.01C2919.4 2019.6 2914.88 1989.24 2910.36 1950.93C2910.16 1949.4 2909.95 1947.84 2909.87 1946.28L2909.8 1945.76C2908.04 1930.79 2906.49 1915.05 2905.16 1899.28C2904.07 1887.01 2903.17 1874.88 2902.55 1863.48C2901.76 1849.23 2901.44 1836.12 2901.76 1825.35C2901.91 1820.43 2902.19 1816 2902.63 1812.15C2905.33 1789.77 2916 1773.79 2926.05 1761.88L2934.39 1752.39C2944.05 1753 2953.93 1751.17 2963.24 1745.03C2973.43 1738.32 2984.45 1730.37 2986.53 1731.59C3002.15 1740.12 3014.8 1762.99 3023.88 1792.21C3029.08 1809.03 3033.08 1828.12 3035.64 1848.33C3036.45 1854.61 3037.16 1861.04 3037.69 1867.45C3037.8 1868.64 3037.88 1869.83 3037.97 1870.99C3039.2 1888.51 3041.2 1904.93 3043.41 1919.59C3046.4 1939.36 3049.8 1955.93 3052.2 1967.6C3053.4 1973.53 3054.32 1978.12 3054.87 1981.41C3055.35 1984.28 3049.6 1988.39 3047.04 1989.99" fill="#2B478B"/>
<path d="M2975.71 1704.59C2975.71 1704.59 2964.11 1726.76 2941.31 1733.35C2939.96 1724.01 2939.87 1718.72 2939.87 1718.72L2957.95 1703.91L2975.71 1704.59Z" fill="#ED985F"/>
<path d="M2931.47 1718.25C2931.47 1718.25 2977.04 1724.77 2980.75 1696.77C2984.47 1668.76 2992.84 1650.75 2963.91 1645.39C2934.96 1640.04 2927.88 1650 2924.33 1659.05C2920.79 1668.11 2919.72 1715.83 2931.47 1718.25Z" fill="#FFB27D"/>
<path d="M2996.17 1641.4C2996.57 1640.92 2997.52 1640.52 2999.63 1640.36C2999.63 1640.36 2997.92 1639.33 2995.65 1639.33C2995.15 1636.4 2993.48 1631.21 2988.39 1630.05C2988.39 1630.05 2991.15 1631.45 2991.56 1634.57C2985.57 1628.67 2972.92 1624.52 2938.16 1627.96C2892.36 1632.49 2908.05 1661.57 2914.07 1664.95C2920.08 1668.33 2934.84 1658.44 2945.92 1659.09C2957 1659.76 2959.43 1675.71 2963.23 1677.83C2967.01 1679.95 2965.47 1676.09 2970.49 1673.69C2975.53 1671.31 2976.19 1679.71 2974.83 1685.21C2973.47 1690.71 2980.59 1697.79 2980.59 1697.79C2980.59 1697.79 2980.59 1697.79 2987.49 1690.05C2994.39 1682.32 3000.4 1650.01 2997.05 1643.23C2996.76 1642.63 2996.47 1642.01 2996.17 1641.4" fill="#2C3A64"/>
<path d="M2981.69 1827.84C2981.69 1827.84 2943.28 1857.08 2902.55 1863.48C2901.76 1849.23 2901.44 1836.12 2901.76 1825.35L2981.69 1827.84Z" fill="#233862"/>
<path d="M2745.73 1790.12C2745.13 1789.47 2737.29 1763.28 2723.75 1765.19C2714.91 1766.43 2700.47 1771.55 2704.29 1783.2C2705.81 1787.77 2732.75 1803.55 2732.75 1803.55L2745.73 1790.12" fill="#FFB27D"/>
<path d="M2986.45 1771.36C3008.36 1784.47 3006.59 1817.11 2983.15 1827.24C2982.67 1827.45 2982.19 1827.65 2981.71 1827.84C2945.63 1842.32 2838.29 1843.92 2813.93 1841.25C2787.52 1838.36 2731.03 1805.91 2731.03 1805.91C2731.03 1805.91 2736 1787.72 2746.27 1784.87C2746.27 1784.87 2805.95 1801.77 2828.87 1803.09C2843.37 1803.92 2948.96 1747.53 2968.48 1760.23C2973.64 1763.59 2979.95 1767.47 2986.45 1771.36Z" fill="#2B478B"/>
<path d="M2461.59 2290.04L2217.4 2302.05V2057.87L2461.59 2045.87V2290.04Z" fill="#F9DEC7"/>
<path d="M2235.75 2273.25L2307.87 2139.67L2360.91 2209.4L2387.39 2179.15L2443.51 2263.04L2235.75 2273.25Z" fill="#FFF7F0"/>
<path d="M2342.24 2119.32C2342.24 2109 2350.6 2100.24 2360.91 2099.73C2371.21 2099.23 2379.57 2107.17 2379.57 2117.48C2379.57 2127.79 2371.21 2136.56 2360.91 2137.07C2350.6 2137.57 2342.24 2129.63 2342.24 2119.32" fill="#FFF7F0"/>
<path d="M3187.21 1356.36L2835.43 1373.64V1021.85L3187.21 1004.57V1356.36Z" fill="#F9DEC7"/>
<path d="M2861.84 1332.16L2965.76 1139.72L3042.16 1240.17L3080.31 1196.6L3161.16 1317.45L2861.84 1332.16Z" fill="#FFF7F0"/>
<path d="M3015.27 1110.39C3015.27 1095.55 3027.31 1082.91 3042.16 1082.17C3057.01 1081.45 3069.05 1092.89 3069.05 1107.75C3069.05 1122.6 3057.01 1135.23 3042.16 1135.96C3027.31 1136.69 3015.27 1125.24 3015.27 1110.39Z" fill="#FFF7F0"/>
<path d="M2561.4 1621.77L2217.4 1638.68V1618.64L2561.4 1601.73V1621.77Z" fill="#F99746"/>
<path d="M2401.83 1670.17L2217.4 1679.24V1669.21L2401.83 1660.16V1670.17" fill="#F9DEC7"/>
<path d="M2347.77 1706.16L2217.4 1712.57V1702.56L2347.77 1696.15V1706.16Z" fill="#F9DEC7"/>
<path d="M2503.44 1698.51L2373.08 1704.92V1694.91L2503.44 1688.49V1698.51Z" fill="#F9DEC7"/>
<path d="M2680.87 1689.8L2522.01 1697.6V1687.59L2680.87 1679.77V1689.8" fill="#F9DEC7"/>
<path d="M2330.57 1739.65L2217.4 1745.23V1735.2L2330.57 1729.64V1739.65" fill="#F9DEC7"/>
<path d="M2465.73 1733.01L2352.56 1738.57V1728.56L2465.73 1723V1733.01Z" fill="#F9DEC7"/>
<path d="M2619.76 1725.44L2481.85 1732.23V1722.2L2619.76 1715.43V1725.44Z" fill="#F9DEC7"/>
<path d="M2561.4 1395.67L2217.4 1412.57V1392.53L2561.4 1375.63V1395.67Z" fill="#F99746"/>
<path d="M2401.83 1444.07L2217.4 1453.13V1443.11L2401.83 1434.04V1444.07Z" fill="#F9DEC7"/>
<path d="M2622.04 1433.24L2437.63 1442.31V1432.28L2622.04 1423.23V1433.24Z" fill="#F9DEC7"/>
<path d="M2347.77 1480.05L2217.4 1486.47V1476.44L2347.77 1470.04V1480.05Z" fill="#F9DEC7"/>
<path d="M2503.44 1472.4L2373.08 1478.81V1468.79L2503.44 1462.39V1472.4Z" fill="#F9DEC7"/>
<path d="M2680.87 1463.68L2522.01 1471.49V1461.47L2680.87 1453.67V1463.68Z" fill="#F9DEC7"/>
<path d="M2330.57 1513.55L2217.4 1519.11V1509.09L2330.57 1503.53V1513.55Z" fill="#F9DEC7"/>
<path d="M2465.73 1506.91L2352.56 1512.47V1502.45L2465.73 1496.89V1506.91Z" fill="#F9DEC7"/>
<path d="M2619.76 1499.33L2481.85 1506.11V1496.09L2619.76 1489.32V1499.33Z" fill="#F9DEC7"/>
<path d="M3075.43 1423.55L2833.44 1435.44V1421.35L3075.43 1409.45V1423.55Z" fill="#F99746"/>
<path d="M2963.17 1457.6L2833.44 1463.97V1456.92L2963.17 1450.55V1457.6Z" fill="#F9DEC7"/>
<path d="M3118.09 1449.99L2988.36 1456.36V1449.31L3118.09 1442.93V1449.99Z" fill="#F9DEC7"/>
<path d="M2925.15 1482.91L2833.44 1487.43V1480.37L2925.15 1475.87V1482.91Z" fill="#F9DEC7"/>
<path d="M3034.67 1477.53L2942.96 1482.04V1474.99L3034.67 1470.48V1477.53Z" fill="#F9DEC7"/>
<path d="M3159.48 1471.4L3047.73 1476.89V1469.84L3159.48 1464.35V1471.4Z" fill="#F9DEC7"/>
<path d="M2913.07 1506.48L2833.44 1510.39V1503.35L2913.07 1499.43V1506.48Z" fill="#F9DEC7"/>
<path d="M3008.13 1501.8L2928.52 1505.72V1498.67L3008.13 1494.76V1501.8Z" fill="#F9DEC7"/>
<path d="M3116.49 1496.48L3019.48 1501.24V1494.2L3116.49 1489.43V1496.48" fill="#F9DEC7"/>
<path d="M2561.4 1857.64L2217.4 1874.55V1854.51L2561.4 1837.6V1857.64Z" fill="#F99746"/>
<path d="M2401.83 1906.04L2217.4 1915.11V1905.09L2401.83 1896.03V1906.04Z" fill="#F9DEC7"/>
<path d="M2622.04 1895.21L2437.63 1904.28V1894.27L2622.04 1885.2V1895.21Z" fill="#F9DEC7"/>
<path d="M2347.77 1942.03L2217.4 1948.44V1938.43L2347.77 1932.01V1942.03Z" fill="#F9DEC7"/>
<path d="M2503.44 1934.39L2373.08 1940.79V1930.77L2503.44 1924.36V1934.39" fill="#F9DEC7"/>
<path d="M2680.87 1925.67L2522.01 1933.47V1923.45L2680.87 1915.64V1925.67" fill="#F9DEC7"/>
<path d="M2330.57 1975.53L2217.4 1981.09V1971.07L2330.57 1965.51V1975.53Z" fill="#F9DEC7"/>
<path d="M2465.73 1968.88L2352.56 1974.45V1964.43L2465.73 1958.87V1968.88" fill="#F9DEC7"/>
<path d="M2619.76 1961.32L2481.85 1968.09V1958.08L2619.76 1951.29V1961.32Z" fill="#F9DEC7"/>
<path d="M2790.27 2171.84L2524.56 2184.89V2164.85L2790.27 2151.8V2171.84Z" fill="#F99746"/>
<path d="M2667 2218.45L2524.56 2225.45V2215.44L2667 2208.44V2218.45Z" fill="#F9DEC7"/>
<path d="M2837.11 2210.09L2694.67 2217.09V2207.08L2837.11 2200.08V2210.09Z" fill="#F9DEC7"/>
<path d="M2625.25 2253.84L2524.56 2258.79V2248.77L2625.25 2243.83V2253.84Z" fill="#F9DEC7"/>
<path d="M2745.51 2247.93L2644.8 2252.88V2242.87L2745.51 2237.91V2247.93Z" fill="#F9DEC7"/>
<path d="M2882.55 2241.2L2759.85 2247.23V2237.2L2882.55 2231.17V2241.2Z" fill="#F9DEC7"/>
<path d="M2611.97 2287.15L2524.56 2291.44V2281.41L2611.97 2277.12V2287.15Z" fill="#F9DEC7"/>
<path d="M2716.37 2282.01L2628.95 2286.31V2276.29L2716.37 2272V2282.01Z" fill="#F9DEC7"/>
<path d="M2835.35 2276.16L2728.83 2281.4V2271.39L2835.35 2266.15V2276.16Z" fill="#F9DEC7"/>
<path d="M2025.95 1476.63L1642.6 1462.71V1079.36L2025.95 1093.28V1476.63Z" fill="#F9DEC7"/>
<path d="M1671.4 1419.96L1784.63 1219.93L1867.89 1336.52L1909.47 1292.59L1997.56 1431.8L1671.4 1419.96Z" fill="#FFF7F0"/>
<path d="M1838.59 1192.59C1838.59 1176.4 1851.71 1163.76 1867.89 1164.35C1884.07 1164.93 1897.19 1178.53 1897.19 1194.72C1897.19 1210.89 1884.07 1223.55 1867.89 1222.95C1851.71 1222.36 1838.59 1208.77 1838.59 1192.59Z" fill="#FFF7F0"/>
<path d="M1980.15 1627.8L1636.16 1615.31V1595.27L1980.15 1607.76V1627.8Z" fill="#F99746"/>
<path d="M1820.57 1662.56L1636.16 1655.87V1645.85L1820.57 1652.55V1662.56Z" fill="#F9DEC7"/>
<path d="M1766.52 1693.93L1636.16 1689.2V1679.19L1766.52 1683.92V1693.93Z" fill="#F9DEC7"/>
<path d="M1922.2 1699.59L1791.83 1694.85V1684.84L1922.2 1689.56V1699.59" fill="#F9DEC7"/>
<path d="M2099.61 1706.03L1940.77 1700.25V1690.24L2099.61 1696V1706.03" fill="#F9DEC7"/>
<path d="M1749.33 1725.96L1636.16 1721.85V1711.83L1749.33 1715.95V1725.96Z" fill="#F9DEC7"/>
<path d="M1884.48 1730.87L1771.31 1726.76V1716.73L1884.48 1720.84V1730.87Z" fill="#F9DEC7"/>
<path d="M2038.52 1736.45L1900.61 1731.45V1721.43L2038.52 1726.44V1736.45" fill="#F9DEC7"/>
<path d="M1980.15 1863.67L1636.16 1851.17V1831.13L1980.15 1843.63V1863.67Z" fill="#F99746"/>
<path d="M1820.57 1898.43L1636.16 1891.73V1881.72L1820.57 1888.41V1898.43Z" fill="#F9DEC7"/>
<path d="M2040.8 1906.43L1856.37 1899.73V1889.71L2040.8 1896.4V1906.43Z" fill="#F9DEC7"/>
<path d="M1766.52 1929.8L1636.16 1925.07V1915.05L1766.52 1919.79V1929.8Z" fill="#F9DEC7"/>
<path d="M1922.2 1935.45L1791.83 1930.72V1920.71L1922.2 1925.44V1935.45Z" fill="#F9DEC7"/>
<path d="M2099.61 1941.89L1940.77 1936.12V1926.11L2099.61 1931.88V1941.89Z" fill="#F9DEC7"/>
<path d="M1749.33 1961.83L1636.16 1957.72V1947.69L1749.33 1951.81V1961.83Z" fill="#F9DEC7"/>
<path d="M1884.48 1966.73L1771.31 1962.63V1952.6L1884.48 1956.72V1966.73Z" fill="#F9DEC7"/>
<path d="M2038.52 1972.32L1900.61 1967.32V1957.29L2038.52 1962.31V1972.32" fill="#F9DEC7"/>
<path d="M1491.37 1042.24L1147.37 1029.75V1009.72L1491.37 1022.2V1042.24" fill="#F99746"/>
<path d="M1331.79 1077L1147.37 1070.31V1060.29L1331.79 1066.99V1077" fill="#F9DEC7"/>
<path d="M1552.01 1085L1367.6 1078.31V1068.29L1552.01 1074.99V1085Z" fill="#F9DEC7"/>
<path d="M1277.74 1108.37L1147.37 1103.64V1093.63L1277.74 1098.36V1108.37Z" fill="#F9DEC7"/>
<path d="M1433.41 1114.03L1303.05 1109.29V1099.28L1433.41 1104.01V1114.03" fill="#F9DEC7"/>
<path d="M1610.84 1120.47L1451.99 1114.71V1104.68L1610.84 1110.45V1120.47" fill="#F9DEC7"/>
<path d="M1260.55 1140.4L1147.37 1136.29V1126.28L1260.55 1130.39V1140.4Z" fill="#F9DEC7"/>
<path d="M1395.71 1145.31L1282.53 1141.2V1131.19L1395.71 1135.29V1145.31Z" fill="#F9DEC7"/>
<path d="M1549.73 1150.91L1411.83 1145.89V1135.88L1549.73 1140.88V1150.91Z" fill="#F9DEC7"/>
<path d="M1369.37 716.213L1338.15 672.667L1329.84 725.613L1369.37 716.213ZM1314.13 636.813L1344.32 629.654L1443.69 764.36L1409.47 772.493L1387.93 742.347L1325.01 757.307L1319.34 793.907L1285.97 801.84L1314.13 636.813" fill="#AFCDFB"/>
<path d="M1483.43 548.64C1487.73 505.373 1523.87 473.16 1570.61 477.813C1599.31 480.667 1614.32 493.134 1627.07 508.454L1604.77 529.507C1594.09 517.693 1584.72 510.387 1567.32 508.667C1541.67 506.12 1521.07 525.587 1518.44 552.107C1515.84 578.2 1531.73 601.733 1557.83 604.333C1575.21 606.053 1586.56 600.16 1599.6 590.48L1618.64 615.413C1601.32 630.613 1583.03 638.013 1553.67 635.093C1508.88 630.64 1479.05 592.773 1483.43 548.64" fill="#AFCDFB"/>
<path d="M2035.96 617.613C2050.63 615.24 2058.63 608.64 2056.75 596.987C2055.11 586.853 2046.56 581.813 2029.52 584.573L1991.12 590.76L1996.48 623.987L2035.96 617.613ZM2017.29 558.213C2031.96 555.84 2040.47 549.6 2038.59 537.947C2036.99 528.027 2028.32 523.68 2014.29 525.947L1981.51 531.227L1986.67 563.16L2017.29 558.213ZM1944.45 507.333L2014.56 496.013C2031.81 493.227 2046.16 495.787 2056.19 503.013C2064.2 508.813 2069.01 516.667 2070.76 527.453C2073.51 544.493 2065.97 555.44 2056.17 563.227C2074.72 567.093 2087.15 575.48 2090.48 596.187C2094.95 623.8 2074.73 641.227 2040.65 646.733L1968.83 658.32L1944.45 507.333" fill="#AFCDFB"/>
<path d="M1681.41 759.627C1685.11 716.307 1721.87 683.693 1768.01 687.613C1795.45 689.947 1811.36 698.747 1826.11 713.6L1802.83 737.28C1791.91 726.48 1781.93 719.933 1764.29 718.427C1739.92 716.36 1718.71 736.267 1716.47 762.613C1714.09 790.48 1731.52 812.573 1758.51 814.867C1770.71 815.893 1781.85 813.773 1790.85 808.4L1792.71 786.627L1758.96 783.76L1761.43 754.813L1827.61 760.44L1821.99 826.613C1805.17 838.56 1782.69 847.614 1754.83 845.254C1707.37 841.214 1677.55 805.133 1681.41 759.627" fill="#AFCDFB"/>
<path d="M3519.68 896.507L3499.71 870.627L3525.63 851.547L3545.51 878.973C3549.6 873.36 3552.32 866.787 3554 858.88C3559.43 833.227 3545.13 807.88 3518.63 802.267C3492.12 796.653 3469.31 813.72 3463.79 839.8C3458.36 865.453 3472.65 890.8 3499.16 896.413C3506.43 897.947 3513.37 897.853 3519.68 896.507V896.507ZM3539.49 923.253C3525.16 928.707 3508.99 930.2 3492.31 926.68C3446.13 916.907 3420.28 875.48 3429.37 832.52C3438.37 789.973 3479.31 762.24 3525.48 772C3571.65 781.773 3597.51 823.2 3588.41 866.16C3585.11 881.773 3577.24 895.733 3566.07 906.32L3578.71 922.627L3552.83 941.493L3539.49 923.253" fill="#AFCDFB"/>
<path d="M3195.25 600.2L3226 596.04L3309.67 679.733L3297.03 586.413L3329.93 581.96L3350.47 733.52L3322.11 737.36L3235.65 650.96L3248.71 747.307L3215.8 751.76L3195.25 600.2Z" fill="#AFCDFB"/>
<path d="M2197.84 680.56L2233.69 684.293L2254.51 790.573L2299.37 690.68L2328.05 693.653L2351.43 800.64L2393.65 700.907L2428.64 704.547L2360.77 852.36L2331.65 849.333L2307.65 746.227L2262.97 842.2L2233.85 839.173L2197.84 680.56" fill="#AFCDFB"/>
<path d="M626.117 2373.28C626.117 2375.12 626.227 2376.95 626.457 2378.73C627.147 2384.45 628.917 2389.84 631.545 2394.68C633.605 2398.47 636.199 2401.91 639.216 2404.92C647.321 2413.01 658.493 2418.01 670.853 2418.01H1300.03C1324.73 2418.01 1344.77 2397.99 1344.77 2373.28C1344.77 2360.92 1339.77 2349.73 1331.67 2341.64C1323.57 2333.53 1312.39 2328.53 1300.03 2328.53H670.853C646.147 2328.53 626.117 2348.56 626.117 2373.28" fill="#F78248"/>
<path d="M674.108 2320.44H889.829C893.605 2320.44 896.695 2317.35 896.695 2313.57C896.695 2309.8 893.605 2306.71 889.829 2306.71H674.108C670.332 2306.71 667.241 2309.8 667.241 2313.57C667.241 2317.35 670.332 2320.44 674.108 2320.44Z" fill="#F78248"/>
<path d="M686.023 2328.53H709.405V2320.44H686.023V2328.53Z" fill="#EA642F"/>
<path d="M631.545 2394.68C633.605 2398.47 636.199 2401.91 639.216 2404.92C647.321 2413.01 658.493 2418.01 670.853 2418.01H804.125V2394.68H631.545Z" fill="#EA642F"/>
<path d="M1428.05 2360.17V2386.39C1428.05 2389.25 1427.67 2392.04 1426.95 2394.68C1423.32 2408.13 1411.03 2418.01 1396.43 2418.01H741.035C726.433 2418.01 714.147 2408.13 710.512 2394.68C709.797 2392.04 709.411 2389.25 709.411 2386.39V2360.17C709.411 2342.69 723.563 2328.53 741.035 2328.53H1396.43C1413.91 2328.53 1428.05 2342.69 1428.05 2360.17" fill="#F99746"/>
<path d="M1426.95 2394.68C1423.32 2408.13 1411.03 2418.01 1396.43 2418.01H741.035C726.433 2418.01 714.147 2408.13 710.512 2394.68H1426.95Z" fill="#EF873A"/>
<path d="M1362.96 2373.44C1362.96 2387.33 1368.01 2399.76 1375.97 2407.99C1376.16 2408.17 1376.33 2408.35 1376.51 2408.53C1382.67 2414.67 1390.47 2418.33 1398.96 2418.33C1412.23 2418.33 1445.12 2398.32 1465.49 2385.03C1475.65 2378.4 1482.71 2373.44 1482.71 2373.44C1482.71 2373.44 1475.65 2368.48 1465.49 2361.85C1445.12 2348.55 1412.23 2328.53 1398.96 2328.53C1395.12 2328.53 1391.43 2329.28 1387.95 2330.67C1382.09 2333.01 1376.88 2337.19 1372.77 2342.64C1368.24 2348.63 1365.03 2356.16 1363.67 2364.53L1363.63 2364.83C1363.19 2367.6 1362.96 2370.48 1362.96 2373.44" fill="#CDE0FB"/>
<path d="M1362.96 2373.44C1362.96 2387.33 1368.01 2399.76 1375.97 2407.99L1476.85 2373.28L1363.63 2364.83C1363.19 2367.6 1362.96 2370.48 1362.96 2373.44" fill="#A6C7ED"/>
<path d="M1372.77 2342.64L1473.41 2370.12L1387.95 2330.67C1382.09 2333.01 1376.88 2337.19 1372.77 2342.64Z" fill="#E3F0FF"/>
<path d="M1458.93 2373.44C1458.93 2378.79 1461.67 2383.33 1465.49 2385.03C1475.65 2378.4 1482.71 2373.44 1482.71 2373.44C1482.71 2373.44 1475.65 2368.48 1465.49 2361.85C1461.67 2363.53 1458.93 2368.08 1458.93 2373.44Z" fill="#F99746"/>
<path d="M1166.67 2420.97C1171.17 2421 1175.89 2417.71 1177.22 2413.64L1448.39 1580.55C1449.72 1576.47 1447.15 1573.13 1442.64 1573.11C1438.15 1573.08 1433.41 1576.37 1432.09 1580.44L1160.92 2413.55C1159.59 2417.61 1162.17 2420.95 1166.67 2420.97Z" fill="#233862"/>
<path d="M948.125 2419.69C952.627 2419.72 957.351 2416.44 958.677 2412.36L1229.85 1579.27C1231.17 1575.19 1228.6 1571.87 1224.1 1571.84C1219.6 1571.81 1214.87 1575.09 1213.55 1579.17L942.377 2412.27C941.051 2416.33 943.624 2419.67 948.125 2419.69Z" fill="#233862"/>
<path d="M1183.44 1695.35L1402.89 1696.63C1407.12 1696.65 1411.61 1693.55 1412.85 1689.71C1414.11 1685.88 1411.67 1682.72 1407.43 1682.69L1187.97 1681.41C1183.74 1681.39 1179.26 1684.51 1178.01 1688.33C1176.77 1692.17 1179.21 1695.32 1183.44 1695.35" fill="#233862"/>
<path d="M1136.09 1840.8L1355.55 1842.08C1359.79 1842.11 1364.27 1839 1365.51 1835.16C1366.76 1831.33 1364.32 1828.17 1360.08 1828.15L1140.63 1826.87C1136.4 1826.84 1131.91 1829.96 1130.67 1833.79C1129.42 1837.63 1131.86 1840.77 1136.09 1840.8" fill="#233862"/>
<path d="M1090.49 1980.89L1309.95 1982.17C1314.18 1982.2 1318.67 1979.08 1319.91 1975.25C1321.16 1971.43 1318.72 1968.27 1314.49 1968.24L1095.03 1966.96C1090.8 1966.93 1086.32 1970.05 1085.07 1973.88C1083.82 1977.72 1086.26 1980.87 1090.49 1980.89" fill="#233862"/>
<path d="M1039.16 2138.61L1258.62 2139.89C1262.85 2139.92 1267.33 2136.8 1268.58 2132.96C1269.83 2129.13 1267.38 2125.97 1263.15 2125.95L1043.69 2124.67C1039.46 2124.65 1034.98 2127.76 1033.73 2131.6C1032.49 2135.43 1034.93 2138.59 1039.16 2138.61" fill="#233862"/>
<path d="M985.429 2303.68L1204.89 2304.96C1209.12 2304.99 1213.6 2301.87 1214.85 2298.04C1216.1 2294.2 1213.65 2291.05 1209.42 2291.03L989.965 2289.75C985.735 2289.72 981.251 2292.84 980.004 2296.67C978.756 2300.49 981.197 2303.65 985.429 2303.68" fill="#233862"/>
<path d="M1391.32 1391.91C1391.32 1391.91 1393.91 1386.07 1395.59 1383.31C1397.27 1380.55 1404.45 1372.44 1405.68 1374.28C1406.89 1376.11 1411.79 1388.45 1409.19 1391.91C1406.59 1395.36 1409.36 1401.37 1396.44 1405.01L1391.32 1391.91Z" fill="#FFB27D"/>
<path d="M1247.78 1355.05C1247.78 1355.05 1313.9 1410.24 1339.68 1405.13C1359.84 1401.13 1390.77 1390.53 1390.77 1390.53L1396.97 1406.36C1396.97 1406.36 1369.23 1444 1340.29 1444.24C1295.07 1444.63 1261.67 1424.67 1261.67 1424.67L1247.78 1355.05" fill="#EF7E29"/>
<path d="M1131.83 1937.2C1131.83 1937.2 1133.75 1968.16 1139.74 1968.6C1140.53 1968.67 1170.12 1968.67 1170.12 1968.67L1207.89 1968.44C1207.89 1968.44 1207.64 1959.35 1196.6 1957.43C1185.56 1955.49 1167.08 1947.73 1160.39 1933.15C1153.36 1917.8 1131.83 1937.2 1131.83 1937.2" fill="#1C3D72"/>
<path d="M1129.65 1939.35C1129.65 1939.35 1141.13 1943.19 1150.09 1943.19C1160.09 1943.19 1169.18 1940.47 1169.18 1940.47C1169.18 1940.47 1171.34 1919.56 1183.24 1873.51C1189.47 1849.36 1198.38 1818.33 1211.05 1779.76C1246.08 1673.16 1256.73 1610.81 1257.7 1604.91C1257.76 1604.59 1257.78 1604.44 1257.78 1604.44L1257.66 1604.39L1149.96 1557.09C1149.96 1557.09 1163.27 1704.01 1146.29 1760.4C1143.91 1768.28 1141.87 1777.47 1140.13 1787.41C1129.4 1848.67 1129.65 1939.35 1129.65 1939.35" fill="#2B478B"/>
<path d="M1183.24 1873.51C1189.47 1849.36 1198.38 1818.33 1211.05 1779.76C1246.08 1673.16 1256.73 1610.81 1257.7 1604.91C1257.69 1604.72 1257.68 1604.56 1257.66 1604.39L1149.96 1557.09C1149.96 1557.09 1163.27 1704.01 1146.29 1760.4C1143.91 1768.28 1183.24 1873.51 1183.24 1873.51" fill="#233862"/>
<path d="M1215.95 1937.2C1215.95 1937.2 1217.86 1968.16 1223.85 1968.6C1224.65 1968.67 1254.24 1968.67 1254.24 1968.67L1292 1968.44C1292 1968.44 1291.76 1959.35 1280.72 1957.43C1269.68 1955.49 1251.2 1947.73 1244.51 1933.15C1237.48 1917.8 1215.95 1937.2 1215.95 1937.2" fill="#1C3D72"/>
<path d="M1277.01 1560.56C1277.01 1560.56 1278.41 1655.76 1261.93 1772.64C1245.46 1889.53 1251.05 1939.15 1251.05 1939.15C1251.05 1939.15 1239.73 1942.81 1235.16 1943.19C1223.53 1944.13 1211.6 1940.47 1211.6 1940.47C1211.6 1940.47 1188.02 1823.53 1194.78 1765.03C1201.54 1706.52 1162.5 1564.27 1162.5 1564.27L1277.01 1560.56" fill="#2B478B"/>
<path d="M1200.64 1337.79L1221.66 1351.57L1240.81 1346.15C1244.31 1341.16 1245.24 1331.53 1245.29 1323.19C1245.34 1314.92 1244.54 1307.91 1244.54 1307.91L1216.17 1295.39L1205.59 1290.72C1205.62 1290.88 1206.42 1299.41 1206.53 1300.65C1208.51 1322.76 1200.64 1337.79 1200.64 1337.79" fill="#FFB27D"/>
<path d="M1277.49 1587.03C1251.32 1612.29 1152.29 1608.04 1146.19 1580.2C1140.09 1552.37 1152.84 1343.24 1197.54 1330.11C1206.82 1327.39 1256.41 1343.41 1256.41 1343.41C1256.41 1343.41 1264.19 1363.76 1269.29 1389.68C1270.28 1394.72 1273.17 1448.16 1275.34 1498.16C1276.35 1521.55 1277.2 1544.17 1277.64 1560.75C1278.03 1576.28 1278.05 1586.47 1277.49 1587.03" fill="#F99746"/>
<path d="M1208.65 1301.05C1214.4 1310.77 1234.59 1319.29 1245.29 1323.19C1245.34 1314.92 1244.54 1307.91 1244.54 1307.91L1216.17 1295.39C1209.91 1295.31 1206.09 1296.71 1208.65 1301.05Z" fill="#FCA56B"/>
<path d="M1255.24 1306.17C1255.24 1306.17 1209.54 1320.43 1201.1 1291.84C1192.66 1263.24 1181.07 1245.81 1209.9 1235.51C1238.72 1225.2 1247.63 1234.43 1252.77 1243.29C1257.91 1252.15 1266.91 1301.73 1255.24 1306.17Z" fill="#FFB27D"/>
<path d="M1250.98 1240.53C1250.98 1240.53 1248.06 1273.81 1241.18 1272.36C1234.3 1270.92 1226.72 1267.83 1227.73 1277.87C1228.74 1287.89 1221.04 1305.09 1211.12 1305.05C1189.83 1304.96 1166.71 1250.35 1172.53 1239.99C1189.35 1210.11 1275.28 1204.08 1250.98 1240.53" fill="#163560"/>
<path d="M1244.25 1330.83C1243.67 1330.59 1210.23 1315.59 1206.32 1316.88C1202.41 1318.16 1197.54 1330.11 1197.54 1330.11L1256.41 1343.41C1256.41 1343.41 1251.77 1334 1244.25 1330.83" fill="#EF7E29"/>
<path d="M1452.39 1492.79L1264.98 1669.23C1261.31 1672.69 1256.68 1673.79 1254.69 1671.68L1248.36 1664.96C1246.38 1662.85 1247.75 1658.29 1251.43 1654.84L1438.84 1478.39C1442.51 1474.93 1447.13 1473.83 1449.13 1475.95L1455.45 1482.65C1457.44 1484.77 1456.07 1489.33 1452.39 1492.79" fill="#1F4D84"/>
<path d="M1347.23 1591.8L1264.98 1669.23C1261.31 1672.69 1256.68 1673.79 1254.69 1671.68L1248.36 1664.96C1246.38 1662.85 1247.75 1658.29 1251.43 1654.84L1333.67 1577.4L1347.23 1591.8Z" fill="#F78248"/>
<path d="M1451.29 1290.6C1483.64 1256.21 1529.75 1242.51 1573.03 1250C1598.24 1254.37 1622.49 1265.92 1642.53 1284.77C1696.96 1335.97 1699.56 1421.59 1648.36 1476C1629.51 1496.04 1606.01 1509.04 1581.11 1514.95C1538.36 1525.07 1491.51 1514.2 1457.12 1481.84C1402.71 1430.64 1400.09 1345.03 1451.29 1290.6V1290.6ZM1409.32 1426.17C1416.51 1449.88 1429.84 1472.08 1449.17 1490.28C1508.27 1545.87 1601.23 1543.03 1656.81 1483.96C1711.67 1425.64 1709.63 1334.36 1652.77 1278.55C1652.03 1277.8 1651.25 1277.05 1650.47 1276.33C1591.4 1220.75 1498.44 1223.56 1442.85 1282.65C1405.47 1322.39 1394.49 1377.45 1409.32 1426.17" fill="#1F4D84"/>
<path d="M1658.95 1463.31L1642.6 1462.71V1284.84C1652.29 1293.97 1660.35 1304.2 1666.73 1315.15C1666.75 1315.17 1666.76 1315.19 1666.77 1315.21C1666.8 1315.25 1666.83 1315.29 1666.84 1315.32C1672.73 1325.45 1677.21 1336.21 1680.25 1347.28C1680.25 1347.29 1680.25 1347.29 1680.27 1347.31C1680.29 1347.4 1680.31 1347.48 1680.33 1347.57C1684.72 1363.65 1686.09 1380.41 1684.44 1396.93L1671.4 1419.96L1680 1420.28C1675.69 1435.45 1668.69 1450.05 1658.95 1463.31" fill="#D6D6E0"/>
<path d="M1680 1420.28L1671.4 1419.96L1684.44 1396.93C1683.64 1404.79 1682.16 1412.61 1680 1420.28Z" fill="#D9E3F5"/>
<path d="M1549.8 1518.6C1548.76 1518.6 1547.72 1518.59 1546.68 1518.56C1547.72 1518.59 1548.76 1518.6 1549.79 1518.6C1560.32 1518.6 1570.84 1517.37 1581.11 1514.95C1606.01 1509.04 1629.51 1496.04 1648.36 1476C1652.19 1471.93 1655.72 1467.69 1658.95 1463.31C1668.69 1450.05 1675.69 1435.45 1680 1420.28C1682.16 1412.61 1683.64 1404.79 1684.44 1396.93C1686.09 1380.41 1684.72 1363.65 1680.33 1347.57C1692.31 1391.49 1681.84 1440.43 1648.36 1476C1629.52 1496.04 1606.01 1509.04 1581.11 1514.95C1570.84 1517.37 1560.32 1518.6 1549.8 1518.6V1518.6ZM1473.24 1494.85C1467.63 1491 1462.24 1486.65 1457.12 1481.84C1402.71 1430.64 1400.09 1345.03 1451.29 1290.6C1453.19 1288.6 1455.12 1286.65 1457.09 1284.8C1455.12 1286.65 1453.19 1288.6 1451.29 1290.6C1400.09 1345.03 1402.71 1430.64 1457.12 1481.84C1462.24 1486.65 1467.63 1491 1473.24 1494.85ZM1680.27 1347.31C1680.25 1347.29 1680.25 1347.29 1680.25 1347.28C1680.25 1347.29 1680.25 1347.29 1680.27 1347.31ZM1666.84 1315.32C1666.83 1315.29 1666.8 1315.25 1666.77 1315.21C1666.8 1315.25 1666.83 1315.29 1666.84 1315.32ZM1666.73 1315.15C1660.35 1304.2 1652.29 1293.97 1642.6 1284.84C1642.59 1284.81 1642.56 1284.79 1642.53 1284.77C1637.84 1280.36 1632.92 1276.33 1627.8 1272.72C1632.92 1276.33 1637.84 1280.35 1642.53 1284.77C1652.25 1293.92 1660.33 1304.17 1666.73 1315.15Z" fill="#698EBF"/>
<path d="M1277.64 1560.75C1174.37 1487.17 1182.96 1388.99 1182.96 1388.99C1220.7 1410.27 1258.15 1457.33 1275.34 1498.16C1276.35 1521.55 1277.2 1544.17 1277.64 1560.75Z" fill="#EF7E29"/>
<path d="M1379.55 1527.24C1386.84 1525.56 1391.72 1520.05 1392.75 1519.09C1392.75 1519.09 1395.84 1519.31 1392.23 1525.93C1391.93 1526.49 1391.25 1527.91 1390.75 1528.92C1390.55 1529.33 1390.83 1529.8 1391.29 1529.84C1395.49 1530.16 1399.72 1528.49 1407.81 1530.19C1408.93 1530.41 1409.25 1533.09 1409.21 1534.24C1409.13 1536.16 1409.28 1538.33 1407.04 1541.28C1405.73 1543.01 1402.09 1544.85 1393.99 1548.12C1390.91 1549.36 1382.07 1548.43 1373.8 1545.59L1367.19 1542.52L1369.24 1530.24L1370.89 1530.59C1373.53 1531.13 1376.8 1527.92 1379.55 1527.24" fill="#F99746"/>
<path d="M1215.01 1343.41C1215.01 1343.41 1122.22 1361.08 1242.31 1495.44C1261.51 1516.93 1365.27 1544.91 1365.27 1544.91C1365.27 1544.91 1375.79 1535.96 1370.49 1528.71C1370.49 1528.71 1299.05 1476.83 1283.33 1468.59C1276.26 1464.87 1255.88 1385.77 1244.35 1366.73C1232.83 1347.68 1215.01 1343.41 1215.01 1343.41" fill="#F99746"/>
<path d="M1393.83 1393.53C1393.83 1393.53 1396.87 1387.73 1397.45 1384.68C1398.05 1381.61 1401.87 1372.69 1403.45 1371.12C1404.08 1370.49 1406.16 1371.31 1406.4 1374.01C1406.51 1375.19 1405.93 1377.33 1404.91 1379.88C1403.25 1384.03 1403.52 1389.67 1402.95 1391.53C1401.51 1396.21 1393.83 1393.53 1393.83 1393.53Z" fill="#FFB27D"/>
<path d="M3983.39 2432.13L259.887 2430.85C257.115 2430.85 254.848 2428.59 254.848 2425.81L254.851 2421.84C254.851 2419.07 257.119 2416.8 259.891 2416.8L3983.39 2418.08C3986.16 2418.08 3988.43 2420.35 3988.43 2423.12V2427.09C3988.43 2429.87 3986.16 2432.13 3983.39 2432.13Z" fill="#2E3552"/>
</svg>
